$MeshFormat
4.1 0 8
$EndMeshFormat
$PhysicalNames
1
0 1 "fault_1"
$EndPhysicalNames
$Entities
314 0 0 0
2133 378953.7955981866 6527656.115900235 0 1 1 
2138 378747.7040460955 6528111.666415718 0 1 1 
2143 378541.6124940044 6528567.216931201 0 1 1 
2148 378335.5209419133 6529022.767446684 0 1 1 
2285 388370.2909388054 6528257.018241406 0 1 1 
2838 369980.3589956177 6542902.289480121 0 1 1 
4326 370352.4058126746 6542464.89568219 0 1 1 
4743 371146.4723432732 6528493.575857557 0 1 1 
6510 379065.6507472079 6527229.472937751 0 1 1 
6511 378106.9515998868 6529528.003496038 0 1 1 
6512 377785.7871412625 6530096.040870471 0 1 1 
6513 377467.1415206144 6530708.519560228 0 1 1 
6514 377197.2970955918 6531296.093247685 0 1 1 
6515 376977.2232455328 6531760.109015868 0 1 1 
6516 375411.0710024818 6534604.624805484 0 1 1 
6517 375012.2897689042 6535673.131274172 0 1 1 
6518 374329.8330129352 6536799.638313578 0 1 1 
6519 373610.8117475415 6538134.220225101 0 1 1 
6520 372790.0393456396 6539389.627970371 0 1 1 
6521 372457.9631518577 6539874.270052023 0 1 1 
6522 372092.6975977828 6540396.771501409 0 1 1 
6523 371156.0232501278 6541417.201189061 0 1 1 
6524 378850.749822141 6527883.891157976 0 1 1 
6525 378644.6582700499 6528339.441673459 0 1 1 
6526 378438.5667179588 6528794.992188943 0 1 1 
6527 378232.4751658678 6529250.542704425 0 1 1 
6528 377983.9082931171 6529745.627816047 0 1 1 
6529 377670.4042944466 6530317.821840486 0 1 1 
6530 377362.8053851127 6530935.706643551 0 1 1 
6531 377090.1654268423 6531521.975530192 0 1 1 
6532 376856.6449425882 6531979.108725592 0 1 1 
6533 376736.0666396436 6532198.108435315 0 1 1 
6534 376615.488336699 6532417.108145039 0 1 1 
6535 376494.9100337544 6532636.107854762 0 1 1 
6536 376374.3317308098 6532855.107564486 0 1 1 
6537 376253.7534278652 6533074.107274209 0 1 1 
6538 376133.1751249205 6533293.106983933 0 1 1 
6539 376012.5968219759 6533512.106693656 0 1 1 
6540 375892.0185190313 6533731.10640338 0 1 1 
6541 375771.4402160867 6533950.106113103 0 1 1 
6542 375650.861913142 6534169.105822827 0 1 1 
6543 375323.657058039 6534838.844365548 0 1 1 
6544 375236.2431135962 6535073.063925614 0 1 1 
6545 375148.8291691535 6535307.283485678 0 1 1 
6546 374882.7524873971 6535886.953847115 0 1 1 
6547 374753.21520589 6536100.776420057 0 1 1 
6548 374623.677924383 6536314.598993 0 1 1 
6549 374494.1406428759 6536528.421565942 0 1 1 
6550 374211.2568919613 6537019.728530386 0 1 1 
6551 374092.6807709874 6537239.818747195 0 1 1 
6552 373974.1046500134 6537459.908964003 0 1 1 
6553 373855.5285290395 6537679.999180812 0 1 1 
6554 373736.9524080656 6537900.08939762 0 1 1 
6555 373474.0077113524 6538343.468058262 0 1 1 
6556 373337.2036751634 6538552.715891423 0 1 1 
6557 373200.3996389743 6538761.963724583 0 1 1 
6558 373063.5956027853 6538971.211557743 0 1 1 
6559 372648.729568739 6539595.859750057 0 1 1 
6560 372314.7253600244 6540079.167428753 0 1 1 
6561 371923.6408974488 6540580.944876445 0 1 1 
6562 371754.5841971147 6540765.118251481 0 1 1 
6563 371585.5274967807 6540949.291626517 0 1 1 
6564 371416.4707964466 6541133.465001553 0 1 1 
6565 371003.8694594558 6541615.567577302 0 1 1 
6566 370851.7156687837 6541813.933965544 0 1 1 
6567 370699.5618781117 6542012.300353786 0 1 1 
6568 370547.4080874396 6542210.666742029 0 1 1 
6569 370190.4274731277 6542655.324192444 0 1 1 
6570 388745.4936650225 6527437.452654777 0 1 1 
6571 388266.3088233058 6528433.010060038 0 1 1 
6572 387679.4029679766 6529428.026803358 0 1 1 
6573 387437.6081333249 6529775.033629167 0 1 1 
6574 387037.9898862141 6530348.037445594 0 1 1 
6575 386164.7003299822 6531434.557012441 0 1 1 
6576 385628.7585511098 6532003.51781776 0 1 1 
6577 385410.6193557881 6532235.071519414 0 1 1 
6578 383443.099228344 6534539.599881388 0 1 1 
6579 382480.6063097906 6535709.199928397 0 1 1 
6580 381931.6440307784 6536376.12611914 0 1 1 
6581 380975.4995459341 6537684.622802271 0 1 1 
6582 380924.7702642345 6537767.752058987 0 1 1 
6583 378477.8315191921 6541775.688153136 0 1 1 
6584 377342.8851751123 6543902.678525195 0 1 1 
6585 376979.7185323903 6544659.690935146 0 1 1 
6586 376196.133121243 6546292.680997144 0 1 1 
6587 375654.3478365935 6547496.179510033 0 1 1 
6588 375550.3505527308 6547752.151241075 0 1 1 
6589 388641.4289002073 6527664.764169496 0 1 1 
6590 388537.3641353921 6527892.075684216 0 1 1 
6591 388139.2963339792 6528648.341960961 0 1 1 
6592 388012.2838446525 6528863.673861885 0 1 1 
6593 387885.2713553259 6529079.005762807 0 1 1 
6594 387294.5992889704 6529980.090866143 0 1 1 
6595 386881.3710259801 6530542.897735594 0 1 1 
6596 386724.7521657461 6530737.758025594 0 1 1 
6597 386568.133305512 6530932.618315594 0 1 1 
6598 386411.514445278 6531127.478605594 0 1 1 
6599 385993.2829741609 6531616.535280713 0 1 1 
6600 385821.8656183397 6531798.513548984 0 1 1 
6601 385248.2923158215 6532425.20287426 0 1 1 
6602 385085.965275855 6532615.334229107 0 1 1 
6603 384923.6382358884 6532805.465583953 0 1 1 
6604 384761.3111959218 6532995.596938799 0 1 1 
6605 384598.9841559552 6533185.728293645 0 1 1 
6606 384436.6571159887 6533375.859648492 0 1 1 
6607 384274.3300760221 6533565.991003338 0 1 1 
6608 384112.0030360555 6533756.122358184 0 1 1 
6609 383949.6759960889 6533946.25371303 0 1 1 
6610 383787.3489561224 6534136.385067877 0 1 1 
6611 383625.0219161558 6534326.516422723 0 1 1 
6612 383284.2419693165 6534732.639699183 0 1 1 
6613 383125.384710289 6534925.679516978 0 1 1 
6614 382966.5274512614 6535118.719334773 0 1 1 
6615 382807.6701922339 6535311.759152568 0 1 1 
6616 382648.8129332063 6535504.798970362 0 1 1 
6617 382321.726246725 6535902.220977924 0 1 1 
6618 382162.8461836593 6536095.24202745 0 1 1 
6619 381784.1463827507 6536577.978649038 0 1 1 
6620 381636.6487347229 6536779.831178936 0 1 1 
6621 381489.1510866951 6536981.683708834 0 1 1 
6622 381341.6534386673 6537183.536238732 0 1 1 
6623 381194.1557906395 6537385.38876863 0 1 1 
6624 380794.4990799081 6537981.128296029 0 1 1 
6625 380664.2278955816 6538194.50453307 0 1 1 
6626 380533.9567112552 6538407.880770112 0 1 1 
6627 380403.6855269288 6538621.257007155 0 1 1 
6628 380273.4143426024 6538834.633244197 0 1 1 
6629 380143.143158276 6539048.009481238 0 1 1 
6630 380012.8719739496 6539261.38571828 0 1 1 
6631 379882.6007896232 6539474.761955323 0 1 1 
6632 379752.3296052968 6539688.138192364 0 1 1 
6633 379622.0584209703 6539901.514429406 0 1 1 
6634 379491.787236644 6540114.890666449 0 1 1 
6635 379361.5160523175 6540328.266903491 0 1 1 
6636 379231.2448679911 6540541.643140532 0 1 1 
6637 379100.9736836647 6540755.019377574 0 1 1 
6638 378970.7024993383 6540968.395614617 0 1 1 
6639 378840.4313150119 6541181.771851658 0 1 1 
6640 378710.1601306855 6541395.1480887 0 1 1 
6641 378360.1399398387 6541996.252638375 0 1 1 
6642 378242.4483604853 6542216.817123616 0 1 1 
6643 378124.7567811318 6542437.381608856 0 1 1 
6644 378007.0652017784 6542657.946094097 0 1 1 
6645 377889.373622425 6542878.510579336 0 1 1 
6646 377771.6820430715 6543099.075064577 0 1 1 
6647 377653.9904637181 6543319.639549817 0 1 1 
6648 377536.2988843647 6543540.204035058 0 1 1 
6649 377234.7506443349 6544128.082436549 0 1 1 
6650 377126.6161135574 6544353.486347903 0 1 1 
6651 376871.5637908186 6544885.085149525 0 1 1 
6652 376763.409049247 6545110.479363904 0 1 1 
6653 376655.2543076753 6545335.873578283 0 1 1 
6654 376547.0995661037 6545561.267792663 0 1 1 
6655 376438.9448245321 6545786.662007041 0 1 1 
6656 376330.7900829605 6546012.056221421 0 1 1 
6657 376093.508723349 6546520.646417674 0 1 1 
6658 375990.884325455 6546748.611838202 0 1 1 
6659 375888.259927561 6546976.577258731 0 1 1 
6660 375785.6355296671 6547204.54267926 0 1 1 
6661 378440.3158591132 6538701.407331805 0 1 1 
6662 378466.9664278779 6538659.775805782 0 1 1 
6663 378493.1140001407 6538616.734566698 0 1 1 
6664 378520.6633659347 6538571.16384249 0 1 1 
6665 378549.4743459074 6538530.422135346 0 1 1 
6666 378573.0821981268 6538497.29887749 0 1 1 
6667 378608.3744117098 6538449.058696637 0 1 1 
6668 378629.4425438875 6538420.244561672 0 1 1 
6669 378653.5616384562 6538388.011122695 0 1 1 
6670 378678.1919753645 6538355.007840416 0 1 1 
6671 378693.2818704279 6538332.40244168 0 1 1 
6672 378704.4632352923 6538312.866418183 0 1 1 
6673 378736.3169318116 6538254.598278493 0 1 1 
6674 378753.2044209277 6538229.463394627 0 1 1 
6675 378785.0663632855 6538184.532540171 0 1 1 
6676 378823.1456722459 6538130.713494884 0 1 1 
6677 378849.1695568433 6538096.190521935 0 1 1 
6678 378882.8043557284 6538053.669177032 0 1 1 
6679 378904.8949725982 6538024.355143816 0 1 1 
6680 378930.2839271858 6537991.601810664 0 1 1 
6681 378967.7365519771 6537946.550980628 0 1 1 
6682 378994.6427419168 6537913.797647474 0 1 1 
6683 379019.6523876639 6537882.833950046 0 1 1 
6684 379047.5810622954 6537846.66131288 0 1 1 
6685 379063.9573090671 6537823.815962987 0 1 1 
6686 379073.0937045498 6537811.378494598 0 1 1 
6687 379085.9159924306 6537796.901441361 0 1 1 
6688 379086.5839058168 6537794.181994895 0 1 1 
6689 379101.4264255493 6537774.865926623 0 1 1 
6690 379115.699982027 6537756.819599902 0 1 1 
6691 379138.1946452679 6537734.744093306 0 1 1 
6692 379143.6698858781 6537728.945273641 0 1 1 
6693 379148.6916050552 6537723.636354255 0 1 1 
6694 379208.2266008722 6537657.619791735 0 1 1 
6695 379237.3179395479 6537626.946035291 0 1 1 
6696 379279.33876208 6537580.955396552 0 1 1 
6697 379319.2568943166 6537535.014747638 0 1 1 
6698 379350.4509232902 6537498.532173559 0 1 1 
6699 379372.442590026 6537473.997167591 0 1 1 
6700 379384.9680275152 6537463.379328819 0 1 1 
6701 379396.0999173151 6537453.151410683 0 1 1 
6702 379414.1995455424 6537437.664562985 0 1 1 
6703 379426.9806042002 6537426.916750671 0 1 1 
6704 379444.6926777516 6537411.189951817 0 1 1 
6705 379463.7982989837 6537393.023649516 0 1 1 
6706 379482.5163655372 6537374.997318722 0 1 1 
6707 379504.1369692788 6537352.761844685 0 1 1 
6708 379515.7636097377 6537339.47454928 0 1 1 
6709 379532.7005739216 6537320.058501361 0 1 1 
6710 379548.6315451023 6537303.571857167 0 1 1 
6711 379562.2866632542 6537288.614901613 0 1 1 
6712 379579.7266239423 6537269.198853691 0 1 1 
6713 379589.6216370952 6537258.011130922 0 1 1 
6714 379606.9956310276 6537240.474700412 0 1 1 
6715 379612.347183976 6537235.19577492 0 1 1 
6716 379630.4220746743 6537215.269830788 0 1 1 
6717 379647.7383476918 6537195.843784904 0 1 1 
6718 379659.3649881519 6537182.436513917 0 1 1 
6719 379670.1010774273 6537170.548933598 0 1 1 
6720 379682.1070267209 6537157.131664643 0 1 1 
6721 379700.181917418 6537137.07574697 0 1 1 
6722 379711.1818737123 6537125.188166652 0 1 1 
6723 379726.222293705 6537108.07165067 0 1 1 
6724 379740.6195378456 6537090.065315806 0 1 1 
6725 379758.6861826994 6537068.479709497 0 1 1 
6726 379770.0572019833 6537054.682517873 0 1 1 
6727 379785.4686849723 6537035.656390587 0 1 1 
6728 379802.0098486295 6537013.690861607 0 1 1 
6729 379813.2489344071 6536999.513747316 0 1 1 
6730 379827.2668697081 6536981.25746333 0 1 1 
6731 379841.2683133228 6536960.83162095 0 1 1 
6732 379857.1663011279 6536937.096452177 0 1 1 
6733 379865.8739127028 6536923.949128276 0 1 1 
6734 379877.2201944533 6536905.452893132 0 1 1 
6735 379890.4630203955 6536884.907075171 0 1 1 
6736 379905.0993940195 6536863.46144037 0 1 1 
6737 379917.5918481305 6536845.465103474 0 1 1 
6738 379927.3136985542 6536832.317779573 0 1 1 
6739 379943.5909951963 6536808.322663708 0 1 1 
6740 379956.2153828102 6536791.59606836 0 1 1 
6741 379968.0811527522 6536774.999446553 0 1 1 
6742 379977.6710696694 6536762.23204532 0 1 1 
6743 379989.4049061041 6536744.625629053 0 1 1 
6744 379999.1185106856 6536730.198565641 0 1 1 
6745 380009.8381082672 6536713.102045589 0 1 1 
6746 380016.6409298148 6536700.984512078 0 1 1 
6747 380025.4639832089 6536686.697420174 0 1 1 
6748 380029.6281345776 6536680.43869412 0 1 1 
6749 380051.2652300117 6536643.836144462 0 1 1 
6750 380099.9322030491 6536566.341918189 0 1 1 
6751 380151.0399459923 6536485.558361446 0 1 1 
6752 380182.9761009519 6536435.978453294 0 1 1 
6753 385479.9607209787 6531544.557353766 0 1 1 
6754 385247.0680718772 6531102.563526081 0 1 1 
6755 385074.2149004914 6530890.053490556 0 1 1 
6756 384918.9322844289 6530656.836326531 0 1 1 
6757 384752.3377958023 6530520.159866445 0 1 1 
6758 384622.0256400648 6530423.999121958 0 1 1 
6759 384374.5232885049 6530293.13462614 0 1 1 
6760 384331.9344820683 6530272.156067453 0 1 1 
6761 384143.2650097845 6530268.58854604 0 1 1 
6762 383880.936016941 6530297.617733473 0 1 1 
6763 383625.5527543374 6530354.196077855 0 1 1 
6764 383399.7151991307 6530430.129988711 0 1 1 
6765 382968.6108390373 6530705.293528808 0 1 1 
6766 382457.5317476455 6531062.533608482 0 1 1 
6767 382238.6223735745 6531203.571860465 0 1 1 
6768 381875.177301815 6531385.063147338 0 1 1 
6769 381155.8675226768 6531853.079130514 0 1 1 
6770 381044.6179307165 6531907.080729572 0 1 1 
6771 380921.8371591375 6531990.072640898 0 1 1 
6772 379167.2397441274 6533032.585277222 0 1 1 
6773 379018.0420987211 6533057.085524371 0 1 1 
6774 378399.5586894766 6533388.098168159 0 1 1 
6775 377962.7092993662 6533510.612025047 0 1 1 
6776 377942.5942031126 6533561.112513939 0 1 1 
6777 377888.7714177991 6533617.11653054 0 1 1 
6778 377504.7419452785 6534410.130181094 0 1 1 
6779 377405.2761642616 6534458.744625784 0 1 1 
6780 376679.0824063327 6534813.634078622 0 1 1 
6781 376343.5608152291 6534931.12712946 0 1 1 
6782 383188.9825505179 6530564.63556781 0 1 1 
6783 382763.7058496806 6530848.52043039 0 1 1 
6784 381665.6282686636 6531521.405373759 0 1 1 
6785 381456.0792355122 6531657.747600179 0 1 1 
6786 380706.9122221844 6532117.772568367 0 1 1 
6787 380491.9872852312 6532245.472495836 0 1 1 
6788 380277.0623482781 6532373.172423306 0 1 1 
6789 380062.137411325 6532500.872350776 0 1 1 
6790 379847.2124743719 6532628.572278245 0 1 1 
6791 379632.2875374188 6532756.272205714 0 1 1 
6792 379417.3626004657 6532883.972133184 0 1 1 
6793 378797.6249862924 6533175.052878112 0 1 1 
6794 377779.8091871173 6533842.121491118 0 1 1 
6795 377670.8469564355 6534067.126451697 0 1 1 
6796 377180.6631605752 6534568.512556323 0 1 1 
6797 376956.0501568887 6534678.280486863 0 1 1 
6798 376125.1894670091 6535052.839718277 0 1 1 
6799 375906.8181187892 6535174.552307094 0 1 1 
6800 375688.4467705692 6535296.264895911 0 1 1 
6801 375470.0754223492 6535417.977484729 0 1 1 
6802 375251.7040741292 6535539.690073546 0 1 1 
6803 370136.5875153692 6530281.659194521 0 1 1 
6804 371585.4437833323 6527592.26018273 0 1 1 
6805 371804.2216628033 6527142.997755527 0 1 1 
6806 370259.5306899851 6530063.978290867 0 1 1 
6807 370382.473864601 6529846.297387213 0 1 1 
6808 370505.4170392168 6529628.616483561 0 1 1 
6809 370628.3602138327 6529410.935579907 0 1 1 
6810 370751.3033884486 6529193.254676254 0 1 1 
6811 370874.2465630645 6528975.5737726 0 1 1 
6812 370997.1897376803 6528757.892868946 0 1 1 
6813 371255.938283396 6528268.815523083 0 1 1 
6814 371365.4042235187 6528044.055188608 0 1 1 
6815 371474.8701636415 6527819.294854134 0 1 1 
$EndEntities
