$MeshFormat
4.1 0 8
$EndMeshFormat
$PhysicalNames
7
1 10 "boundary_xneg"
1 11 "boundary_xpos"
1 12 "boundary_yneg"
1 13 "boundary_ypos"
1 20 "fault"
2 1 "material-id:1"
2 2 "material-id:2"
$EndPhysicalNames
$Entities
14 15 2 0
1 370000 6527000 0 0 
2 389000 6527000 0 0 
3 389000 6548000 0 0 
4 370000 6548000 0 0 
5 388000 6527000 0 0 
6 375500 6548000 0 0 
7 387400 6530000 0 0 
8 385500 6532000 0 0 
9 383500 6534500 0 0 
10 381900 6536400 0 0 
11 380900 6537700 0 0 
12 379100 6540000 0 0 
13 377500 6543500 0 0 
14 376200 6546300 0 0 
1 370000 6527000 0 388000 6527000 0 1 12 2 1 -5 
2 388000 6527000 0 389000 6527000 0 1 12 2 5 -2 
3 389000 6527000 0 389000 6548000 0 1 11 2 2 -3 
4 375500 6548000 0 389000 6548000 0 1 13 2 3 -6 
5 370000 6548000 0 375500 6548000 0 1 13 2 6 -4 
6 370000 6527000 0 370000 6548000 0 1 10 2 4 -1 
7 387400 6527000 0 388000 6530000 0 1 20 2 5 -7 
8 385500 6530000 0 387400 6532000 0 1 20 2 7 -8 
9 383500 6532000 0 385500 6534500 0 1 20 2 8 -9 
10 381900 6534500 0 383500 6536400 0 1 20 2 9 -10 
11 380900 6536400 0 381900 6537700 0 1 20 2 10 -11 
12 379100 6537700 0 380900 6540000 0 1 20 2 11 -12 
13 377500 6540000 0 379100 6543500 0 1 20 2 12 -13 
14 376200 6543500 0 377500 6546300 0 1 20 2 13 -14 
15 375500 6546300 0 376200 6548000 0 1 20 2 14 -6 
1 370000 6527000 0 388000 6548000 0 1 1 12 1 7 8 9 10 11 12 13 14 15 5 6 
2 375500 6527000 0 389000 6548000 0 1 2 12 2 3 4 -15 -14 -13 -12 -11 -10 -9 -8 -7 
$EndEntities
$Nodes
31 596 1 596
0 1 0 1
1
370000 6527000 0
0 2 0 1
2
389000 6527000 0
0 3 0 1
3
389000 6548000 0
0 4 0 1
4
370000 6548000 0
0 5 0 1
5
388000 6527000 0
0 6 0 1
6
375500 6548000 0
0 7 0 1
7
387400 6530000 0
0 8 0 1
8
385500 6532000 0
0 9 0 1
9
383500 6534500 0
0 10 0 1
10
381900 6536400 0
0 11 0 1
11
380900 6537700 0
0 12 0 1
12
379100 6540000 0
0 13 0 1
13
377500 6543500 0
0 14 0 1
14
376200 6546300 0
1 1 0 17
15
16
17
18
19
20
21
22
23
24
25
26
27
28
29
30
31
371000 6527000 0
372000 6527000 0
373000 6527000 0
374000 6527000 0
375000 6527000 0
376000 6527000 0
377000 6527000 0
378000 6527000 0
379000 6527000 0
380000 6527000 0
381000 6527000 0
382000 6527000 0
383000 6527000 0
384000 6527000 0
385000 6527000 0
386000 6527000 0
387000 6527000 0
1 2 0 0
1 3 0 20
32
33
34
35
36
37
38
39
40
41
42
43
44
45
46
47
48
49
50
51
389000 6528000 0
389000 6529000 0
389000 6530000 0
389000 6531000 0
389000 6532000 0
389000 6533000 0
389000 6534000 0
389000 6535000 0
389000 6536000 0
389000 6537000 0
389000 6538000 0
389000 6539000 0
389000 6540000 0
389000 6541000 0
389000 6542000 0
389000 6543000 0
389000 6544000 0
389000 6545000 0
389000 6546000 0
389000 6547000 0
1 4 0 13
52
53
54
55
56
57
58
59
60
61
62
63
64
388035.7142857143 6548000 0
387071.4285714286 6548000 0
386107.1428571428 6548000 0
385142.8571428572 6548000 0
384178.5714285714 6548000 0
383214.2857142857 6548000 0
382250 6548000 0
381285.7142857143 6548000 0
380321.4285714286 6548000 0
379357.1428571428 6548000 0
378392.8571428572 6548000 0
377428.5714285714 6548000 0
376464.2857142857 6548000 0
1 5 0 5
65
66
67
68
69
374583.3333333333 6548000 0
373666.6666666667 6548000 0
372750 6548000 0
371833.3333333333 6548000 0
370916.6666666667 6548000 0
1 6 0 20
70
71
72
73
74
75
76
77
78
79
80
81
82
83
84
85
86
87
88
89
370000 6547000 0
370000 6546000 0
370000 6545000 0
370000 6544000 0
370000 6543000 0
370000 6542000 0
370000 6541000 0
370000 6540000 0
370000 6539000 0
370000 6538000 0
370000 6537000 0
370000 6536000 0
370000 6535000 0
370000 6534000 0
370000 6533000 0
370000 6532000 0
370000 6531000 0
370000 6530000 0
370000 6529000 0
370000 6528000 0
1 7 0 3
90
91
92
387850 6527750 0
387700 6528500 0
387550 6529250 0
1 8 0 2
93
94
386766.6666666667 6530666.666666667 0
386133.3333333333 6531333.333333333 0
1 9 0 3
95
96
97
385000 6532625 0
384500 6533250 0
384000 6533875 0
1 10 0 2
98
99
382966.6666666667 6535133.333333333 0
382433.3333333333 6535766.666666667 0
1 11 0 1
100
381400 6537050 0
1 12 0 2
101
102
380300 6538466.666666667 0
379700 6539233.333333333 0
1 13 0 3
103
104
105
378700 6540875 0
378300 6541750 0
377900 6542625 0
1 14 0 3
106
107
108
377175 6544200 0
376850 6544900 0
376525 6545600 0
1 15 0 1
109
375850 6547150 0
2 1 0 303
110
111
112
113
114
115
116
117
118
119
120
121
122
123
124
125
126
127
128
129
130
131
132
133
134
135
136
137
138
139
140
141
142
143
144
145
146
147
148
149
150
151
152
153
154
155
156
157
158
159
160
161
162
163
164
165
166
167
168
169
170
171
172
173
174
175
176
177
178
179
180
181
182
183
184
185
186
187
188
189
190
191
192
193
194
195
196
197
198
199
200
201
202
203
204
205
206
207
208
209
210
211
212
213
214
215
216
217
218
219
220
221
222
223
224
225
226
227
228
229
230
231
232
233
234
235
236
237
238
239
240
241
242
243
244
245
246
247
248
249
250
251
252
253
254
255
256
257
258
259
260
261
262
263
264
265
266
267
268
269
270
271
272
273
274
275
276
277
278
279
280
281
282
283
284
285
286
287
288
289
290
291
292
293
294
295
296
297
298
299
300
301
302
303
304
305
306
307
308
309
310
311
312
313
314
315
316
317
318
319
320
321
322
323
324
325
326
327
328
329
330
331
332
333
334
335
336
337
338
339
340
341
342
343
344
345
346
347
348
349
350
351
352
353
354
355
356
357
358
359
360
361
362
363
364
365
366
367
368
369
370
371
372
373
374
375
376
377
378
379
380
381
382
383
384
385
386
387
388
389
390
391
392
393
394
395
396
397
398
399
400
401
402
403
404
405
406
407
408
409
410
411
412
380629.6995955189 6536970.097159066 0
370904.0941134075 6533590.377825735 0
382280.3455803415 6535032.587384446 0
376384.3857867011 6528008.405918442 0
378839.8129518903 6539186.868065946 0
370810.1776164222 6536462.992941112 0
379629.3268356801 6527894.569181323 0
376742.4206763214 6543616.891046287 0
370955.9857788989 6539595.588010308 0
383687.0060135606 6533329.843684026 0
375783.0456453674 6545696.860782087 0
370791.9565150646 6542464.673793951 0
373475.9271546277 6527789.3002855 0
377677.960868052 6541032.683712076 0
382362.3363502605 6527944.28178895 0
373184.7039232092 6547209.53103523 0
385277.6140028915 6531133.934690542 0
370843.7860397497 6530461.742784586 0
370841.9273314213 6544457.535960612 0
384523.8243601441 6527854.263056217 0
386928.585479289 6528716.287146243 0
370897.3482137055 6546423.563029712 0
371568.363955529 6527957.20032652 0
386515.9852019113 6529879.976275278 0
384686.724454547 6531798.391570667 0
384428.3068210397 6530940.512878389 0
383833.073700382 6531590.838580733 0
383579.4040074224 6530732.369890488 0
382996.6059339817 6531361.80546718 0
382726.6483978772 6530508.914596878 0
382120.8581533009 6531156.506168799 0
381859.6586847412 6530288.645820606 0
381247.1838732174 6530946.477199272 0
381502.3274415124 6531810.901132704 0
380629.1879272641 6531605.116693212 0
380888.9811045041 6532468.825656666 0
380012.408512906 6532267.268371685 0
379747.3387888273 6531396.330158179 0
379125.5796264695 6532061.423816079 0
379393.9936161337 6532930.090004602 0
378504.4932775943 6532728.310407544 0
378778.5893399908 6533595.663379535 0
377885.6475147654 6533399.418779206 0
377610.199181947 6532528.772005882 0
376983.7457984549 6533203.772225698 0
377266.1515008021 6534076.256015202 0
376345.2882714514 6533895.235848382 0
376025.953078386 6533029.954797574 0
376641.1960996344 6534767.847991116 0
375714.4273390186 6534589.856864911 0
376010.8284410992 6535466.699593735 0
375088.0444574842 6535277.933261022 0
375352.526294722 6536183.317538716 0
374830.4084963616 6534405.875005939 0
378852.6474504526 6531186.422330152 0
376931.9704301824 6535629.923172208 0
374316.7241782154 6536025.582442021 0
374717.6017949666 6536940.264559172 0
375664.8859099216 6537097.114235817 0
375010.9952333312 6537839.433381148 0
374040.7513331291 6537709.010850493 0
374400.2881274492 6538581.346172806 0
375291.2875754912 6538728.258245213 0
374663.7815143241 6539454.341128399 0
379662.2723295223 6533789.238197763 0
379049.2231215081 6534453.049867484 0
373727.7439397979 6539247.136633596 0
374017.8432639674 6540144.301253301 0
374931.0058617155 6540352.93128859 0
374297.1827960162 6541052.176477002 0
373381.7660235488 6540833.695826256 0
373664.8199556774 6541733.350655796 0
375191.4650963568 6541262.611116776 0
380984.959305758 6530069.464720679 0
379925.1103090298 6534633.872407799 0
379322.2649312878 6535286.730838142 0
383317.1724723277 6529872.636686476 0
381749.4170860334 6532660.218983389 0
372770.1945101628 6541526.066149935 0
373061.7329210749 6542412.05310167 0
373938.2551970701 6542618.727309098 0
373341.6461277311 6543288.063143434 0
374206.7205437592 6543495.196250689 0
373607.3749249227 6544154.314926383 0
374807.4564962951 6542816.418152818 0
375059.8154165412 6543672.162661927 0
385003.2373003644 6530270.803876657 0
380532.4917129255 6533970.783213632 0
375820.4374475207 6540554.030428948 0
376068.4037270679 6541487.315264602 0
372712.5279296651 6543969.694538716 0
373032.4246389344 6544820.781860987 0
373888.5721873469 6544975.05048286 0
372441.6692294612 6540644.436105831 0
379482.8273175695 6530511.379864939 0
378583.4930454647 6530301.872420796 0
377947.8444047787 6530979.756386383 0
377691.9053496236 6530099.791960683 0
377026.61506984 6530756.585180465 0
376778.5513771451 6529720.841374961 0
376089.1223698008 6530529.834277814 0
375803.5419443015 6529637.492592455 0
375140.4938404767 6530344.586428026 0
374862.641252478 6529417.321026448 0
374194.433981963 6530122.418319562 0
374473.8102308976 6531055.670436324 0
373511.0105961171 6530824.256411256 0
373812.7639043572 6531770.361210944 0
372845.5860009451 6531551.98314485 0
373183.9664534908 6532491.049282435 0
373256.2872561585 6529872.497710151 0
378325.1173218816 6529441.697986312 0
374136.402469635 6532702.634816428 0
373526.0489046688 6533527.945052817 0
372230.1386385475 6532250.999595744 0
381601.2465392122 6529413.995125085 0
380763.3988753319 6529177.370572373 0
380190.2369010851 6535454.647486435 0
379579.4993697936 6536100.623766916 0
378717.4771714903 6535954.340665612 0
378974.1284804608 6536768.906908108 0
378102.3796266278 6536628.107350217 0
378366.4122332688 6537470.886017567 0
377472.1517544385 6537318.775827488 0
373296.9935456711 6545662.106885526 0
374219.8408236274 6545735.891258107 0
372337.6940186071 6545488.299701704 0
371849.6482034473 6541355.052921057 0
376368.7005368288 6531449.484017 0
377711.847684477 6538220.356983913 0
376820.860522349 6538103.497374944 0
377044.0489389871 6539025.432809616 0
375639.3459150923 6542992.251652503 0
381436.0003351212 6528534.21846529 0
374728.5539428118 6545082.739444768 0
371873.4451366382 6531424.817248263 0
375523.8786254766 6528701.491109089 0
379221.1924737025 6537584.4400668 0
378252.055788832 6540039.724760629 0
377290.1621954946 6540015.798999568 0
383249.744494239 6532196.944545657 0
371236.586166241 6532061.415510365 0
374612.2193093746 6528498.48725969 0
371508.7912604396 6540543.59569829 0
372068.5085067356 6539710.239995723 0
371674.0891735499 6538783.508872662 0
372801.2430646988 6538874.937307503 0
372210.8739673696 6537946.405456805 0
371176.534501472 6537943.67128996 0
386433.3034477707 6527868.032259029 0
375426.80885669 6546429.973685988 0
375433.6459807354 6542150.802041769 0
376259.9162706207 6542364.076488374 0
376903.7563258127 6541728.742578609 0
371641.8596976978 6537009.88066902 0
372680.4430943707 6537135.644663491 0
372326.7667638431 6536236.682630657 0
373307.2772475115 6536353.568008194 0
372823.9538026518 6535445.027048123 0
371896.6892162674 6535356.358600479 0
372388.1427221898 6534607.205240642 0
373349.4049713573 6534613.302873747 0
371456.1641058733 6534528.061409424 0
371968.6721937795 6533772.522476062 0
374471.244810476 6544315.411378947 0
375309.2258521203 6544506.582564661 0
375950.0526188843 6543858.253126284 0
372762.0888837 6546383.585936693 0
385497.4934602528 6527852.051358626 0
385061.8421430013 6528664.831787613 0
384091.4731578535 6528684.174445519 0
385995.2285193126 6528632.947311524 0
385649.6621872903 6529508.908910495 0
383518.3391862301 6527898.517522161 0
383120.1844143799 6528900.98804711 0
381143.2881555987 6533310.993270181 0
381991.4633724552 6533484.759541071 0
382573.229333495 6532808.829052029 0
382843.9013485268 6533584.156323671 0
377039.1012338855 6542696.559884481 0
380588.4806871047 6528294.915313289 0
379875.067517186 6528919.196319898 0
381357.4731325801 6534131.892469932 0
380761.4028610532 6534788.90287723 0
380968.4665620716 6535558.512482115 0
384027.9987810439 6532520.022783036 0
370812.8867033802 6545414.695684534 0
382365.363740427 6531999.200891626 0
370836.0541728832 6543476.439104205 0
371578.6089567539 6542878.142262148 0
371748.8416703459 6543950.205117693 0
375018.3714481647 6547207.760585622 0
380275.4258697253 6533126.735861185 0
370897.3989037099 6541412.740260269 0
372300.2578562729 6547193.193747883 0
378509.6959926272 6527834.245248153 0
377476.8657418754 6527867.12552682 0
377037.9282317998 6528739.289583562 0
374553.3727212095 6541942.058616951 0
374767.7526559332 6531968.288625175 0
375086.2274473094 6532860.192146001 0
375424.0725988091 6531251.220329893 0
371869.3770416997 6546399.092006039 0
384640.6007103708 6529441.102372849 0
370907.659545864 6535417.37159903 0
370834.3752273977 6529501.130786613 0
371731.0291656748 6530000.000128763 0
371604.4469431664 6529003.298198585 0
372564.2242532573 6527843.05561391 0
373083.1371016933 6528740.871764213 0
375550.5862193602 6539620.3271848 0
378163.6599335641 6534261.822863674 0
376295.8799612812 6536341.789805141 0
377549.1558427478 6534939.686847402 0
372454.9592104141 6530547.762042973 0
378446.1238647624 6535113.634555706 0
373924.498077249 6529191.654945657 0
376048.185527393 6544859.631402404 0
385889.12209596 6530466.491133308 0
380367.4008317858 6530730.29246137 0
378227.9052353658 6531856.237061255 0
373141.6039745461 6537926.817023602 0
377307.95321639 6531651.649986142 0
373073.1290047016 6539909.124520367 0
382469.807317322 6529644.141580775 0
374130.8247673917 6547218.516260811 0
371593.0147337752 6544934.750013417 0
376666.55806241 6532338.575002794 0
380117.3744020808 6529833.966911891 0
375717.8807953666 6532152.430307915 0
372199.1911243574 6542209.54109195 0
371409.5308155516 6547204.780794107 0
370793.3732121378 6528532.690528369 0
376175.4463751867 6538869.289344089 0
375925.1884542648 6537972.7185588 0
375400.6310179046 6533723.173319483 0
379227.3830764953 6529601.770840942 0
374213.5685498841 6535013.789969702 0
377837.2891078999 6535789.388118388 0
380063.821919494 6537674.624884811 0
374510.4666009166 6533575.490717554 0
373705.1155500675 6546442.900812355 0
375343.7059800468 6527814.365958916 0
376711.5125272229 6540785.624792051 0
377211.0855461458 6536481.740510727 0
382148.1644226993 6534261.049522252 0
371597.9243638265 6532918.328517491 0
376553.1317645197 6544286.955114995 0
378922.2848455892 6528721.113267381 0
376571.4790965171 6537213.400162471 0
384143.0734459251 6530109.753551327 0
380407.888927724 6536223.048009031 0
372406.5156516879 6529456.97535215 0
377970.6314022313 6528653.576400083 0
379824.1373398416 6536877.349542895 0
372504.8320705317 6543083.97443307 0
370761.3218907842 6538664.553634586 0
378591.7943441987 6538331.298733162 0
387182.377785412 6527966.863881055 0
374625.7271956315 6546453.356520245 0
382197.9149912591 6528887.525001441 0
370672.4351886096 6540510.384793773 0
376424.5324547137 6539784.670125639 0
370777.0017859213 6531345.806570777 0
381170.1129555593 6536311.97674454 0
377954.9536506466 6539136.580058804 0
381380.5902546773 6527701.330980513 0
381717.7595132964 6535664.742743844 0
372577.1949373299 6533147.249857822 0
379456.2395498534 6538404.172988539 0
373923.4921569374 6536818.168032872 0
374427.3199815468 6527722.723531452 0
370647.214664221 6534500 0
377560.8267365363 6529331.039461121 0
370739.2987745266 6532709.276780669 0
371529.7280293638 6536085.652041106 0
375040.8996002895 6545765.906049944 0
376305.6571930848 6528961.504115701 0
376327.2233618883 6543063.815591222 0
386444.2408263125 6529190.190649604 0
370733.7820275447 6537270.947753377 0
373613.7479262658 6535526.922270828 0
372771.8270422015 6533929.568510423 0
370732.0508089601 6527732.05080896 0
381538.9353453403 6534906.281246636 0
375381.6454131268 6545162.105563709 0
382861.5044538192 6534414.18822909 0
371430.1300841739 6542001.957683818 0
370672.2550765426 6547303.905068719 0
372299.1981049209 6544609.794941675 0
374085.9795046377 6534227.280723952 0
383889.719364026 6529401.095603105 0
380500 6527538.097018111 0
373635.460024258 6538499.781639492 0
383403.0157300626 6533909.912584051 0
377620.5491461927 6541974.583133943 0
371560.8406656777 6530703.804305387 0
372284.2734724988 6528570.765798459 0
386967.7623015025 6529407.290814226 0
383239.4428045787 6532849.141100173 0
373433.3143253032 6537318.987027485 0
373866.60493212 6528458.183951802 0
371502.0641422335 6545732.080087081 0
2 2 0 184
413
414
415
416
417
418
419
420
421
422
423
424
425
426
427
428
429
430
431
432
433
434
435
436
437
438
439
440
441
442
443
444
445
446
447
448
449
450
451
452
453
454
455
456
457
458
459
460
461
462
463
464
465
466
467
468
469
470
471
472
473
474
475
476
477
478
479
480
481
482
483
484
485
486
487
488
489
490
491
492
493
494
495
496
497
498
499
500
501
502
503
504
505
506
507
508
509
510
511
512
513
514
515
516
517
518
519
520
521
522
523
524
525
526
527
528
529
530
531
532
533
534
535
536
537
538
539
540
541
542
543
544
545
546
547
548
549
550
551
552
553
554
555
556
557
558
559
560
561
562
563
564
565
566
567
568
569
570
571
572
573
574
575
576
577
578
579
580
581
582
583
584
585
586
587
588
589
590
591
592
593
594
595
596
383755.8084831017 6547222.304786535 0
380657.4295071372 6539334.705275462 0
388257.5465425642 6542475.274848863 0
382194.6949418396 6537173.944865532 0
378927.3113913703 6542587.481138708 0
388047.9696895972 6539488.158264515 0
383659.5909895268 6535163.957916511 0
380774.6209001981 6547013.884550331 0
388133.9745962156 6536500 0
378057.4161187827 6544190.655087272 0
385230.7482782043 6533470.205939412 0
388066.8623858021 6544556.951153053 0
385625.0000000037 6547164.904074922 0
377243.0868881723 6545599.752629861 0
388154.5114899278 6534480.128989984 0
386349.6777843482 6532059.378496845 0
378842.0287924421 6547211.279422783 0
379660.8911768827 6540808.099883551 0
388064.8698527074 6546393.157939631 0
388169.3209050892 6532527.251479611 0
387496.6646508604 6531001.3780713 0
377105.8110243798 6547119.216490914 0
381237.3404107507 6538607.033157229 0
381608.0585876615 6539494.696415612 0
382170.9566999888 6538732.974494626 0
382543.498295038 6539629.379235943 0
383124.6918314676 6538866.728419626 0
383483.558645848 6539767.289982157 0
382898.7296842221 6540518.050024707 0
383841.2368308788 6540657.57616978 0
383252.4994470136 6541412.210640904 0
384066.6902416259 6539024.544429975 0
384201.3425698975 6541549.2102594 0
383608.3264756339 6542306.771667842 0
384560.5377270667 6542444.587403806 0
383964.7910226924 6543202.817991579 0
383010.9316332136 6543064.531359542 0
384787.2821286785 6540795.213016087 0
384921.1781894168 6543342.712322777 0
383364.4583062143 6543957.917495099 0
382412.2275376358 6543819.194701738 0
382060.3312236896 6542930.042166483 0
381457.2960707409 6543679.984280535 0
381816.057323672 6544570.670681452 0
380872.7716536095 6544432.028233849 0
385496.8425885025 6542586.557730564 0
383721.8878003681 6538139.495471568 0
384645.2175987506 6538288.430141656 0
384294.4871069394 6537468.063041893 0
385204.9464924438 6537599.609682849 0
385565.0691402028 6538437.026832363 0
385851.9351630049 6543490.535167013 0
385276.1805613954 6544248.048736813 0
381087.1263076732 6542789.419061868 0
386078.6737046144 6537691.456707597 0
385661.4764600751 6536783.842614198 0
382288.7413436485 6541282.425218289 0
386196.1496715888 6544402.347147373 0
385600.7742671189 6545174.399458166 0
384650.0015203336 6544989.400779632 0
381224.3254714332 6545313.265907917 0
380295.4962645454 6545171.669224579 0
379929.1364550619 6544309.598321837 0
382164.132352197 6545455.649473896 0
379386.9181369281 6545032.344598847 0
386532.9033353606 6545358.248601951 0
386503.5506280168 6538524.634835362 0
385928.4572864043 6539304.339936319 0
387000.6175117132 6537720.828340976 0
381018.7230067366 6540186.944169533 0
386735.3909176436 6543652.611940756 0
379738.8990150911 6545837.282705205 0
378885.3794138162 6545711.661212162 0
384961.0691105547 6545859.548875816 0
384017.2753427894 6545701.903665572 0
383449.5387597741 6537296.338315398 0
383987.8732462935 6536567.639028938 0
386926.696484248 6539396.111511666 0
386309.6026761712 6540186.754609868 0
387278.041750963 6540331.625200478 0
386639.3584615403 6541078.980924729 0
387511.9835337786 6541246.347006442 0
386943.5627758802 6541958.668172994 0
378998.8241152712 6544221.38187086 0
379497.9452000732 6543444.313825866 0
381569.6561894413 6546205.278279723 0
382472.131448075 6546332.989996027 0
383077.1482810605 6536464.417743064 0
377955.1001841975 6547179.177019985 0
382745.8905722616 6537885.82264949 0
387474.8313740217 6538536.24945153 0
388165.8735109313 6533510.523242791 0
387341.1995895438 6534007.141631858 0
387312.7131256778 6534938.61109825 0
386536.673130208 6534470.775511092 0
386499.3576857278 6535374.131044593 0
385758.7208012056 6534893.929653634 0
386569.5181784026 6533601.329782192 0
387289.5542226717 6535890.60590936 0
385690.910444956 6535800.890035145 0
384973.513550284 6535270.353713367 0
385042.9348833101 6534394.135082994 0
384890.420979752 6536168.181498477 0
377595.7649132209 6546363.426053703 0
387352.5526488529 6533077.065392992 0
387280.7949614432 6532061.874822401 0
378502.6289769041 6544916.626935497 0
378486.5888734022 6543428.252601139 0
380087.0052317769 6542517.511459827 0
379768.0096547164 6547201.316643121 0
388031.0793839657 6537587.763756671 0
383704.1893613316 6544838.377226148 0
388148.7975940721 6535474.325814605 0
387235.7449032819 6536827.652790561 0
388305.027158624 6545490.769668519 0
380626.3597147263 6546038.605697467 0
381794.0979612549 6547148.238197856 0
388199.100653672 6543461.965740798 0
379329.6028029348 6541673.871107621 0
380286.059397302 6541492.228670192 0
381744.467796599 6537884.442909111 0
381729.138732845 6542052.605578919 0
385912.6207664299 6546230.703363786 0
386992.3291065092 6546303.28180419 0
380488.5468198225 6543528.809197296 0
382659.7405942879 6542171.257820376 0
384674.7486088682 6547225.835082076 0
384313.466493564 6544096.545758674 0
386544.0257637758 6547148.508109071 0
382761.1229321901 6544702.057689458 0
384422.0278456919 6539910.473887356 0
385137.1922688711 6541692.067808278 0
383086.2723179344 6545576.092425303 0
388159.6191075725 6529722.19931561 0
381944.4608056563 6540377.290094015 0
384997.3848825882 6539169.448334591 0
381233.1008691743 6541164.140686293 0
385760.8386210569 6532721.164661877 0
377646.2470539223 6544892.211919546 0
378427.4242491222 6546425.197573376 0
388208.3282764044 6540592.304117883 0
385356.8471828538 6540051.874779876 0
387073.3428818 6544558.541921877 0
388207.8141573454 6531530.383924573 0
385715.6586675048 6540939.711294513 0
385842.1238230391 6534031.05305887 0
387495.7560058842 6547183.89955854 0
386461.3857224291 6536241.370548422 0
386057.4023770812 6541830.258730293 0
382800.4470024426 6547192.660965561 0
386406.6635649973 6542730.141124377 0
387354.8475678714 6542862.215004649 0
378050.0885825263 6545651.479387358 0
384290.7624311006 6534676.1059668 0
380090.1332833876 6540035.099363416 0
388151.0904881812 6528942.273196456 0
383398.7824710241 6546425.576500712 0
388238.120059235 6530537.675032461 0
379288.4131730391 6546482.767414376 0
383391.3551684469 6535792.364410435 0
388324.6365582872 6538511.446068645 0
384223.5184938007 6535658.171774101 0
386812.1127564204 6531422.899647388 0
388484.164584201 6527518.069901429 0
388364.2091787303 6528285.057182981 0
380897.5749964338 6542014.162249524 0
388289.1748105405 6541543.723237229 0
376841.6941950137 6546290.581959914 0
384805.9123518858 6536925.40011025 0
380459.5027048787 6540737.032287977 0
384320.6972695473 6546507.442734741 0
386561.9885171408 6532815.506194558 0
387422.6844702505 6545488.05635692 0
386497.857982696 6537025.348187939 0
388279.4904250562 6547270.146379257 0
384627.4372705131 6533893.705684858 0
380068.7379130468 6546509.866929613 0
385116.4996009459 6546609.487497739 0
387507.684331137 6543862.022251744 0
382479.1448596299 6536604.516375992 0
385914.1476669045 6533355.942383897 0
376468.4470235397 6546947.960557613 0
387679.7183049885 6542005.523023224 0
382814.9961757944 6537106.834070568 0
$EndNodes
$Elements
17 1219 1 1219
1 1 1 18
1 1 15 
2 15 16 
3 16 17 
4 17 18 
5 18 19 
6 19 20 
7 20 21 
8 21 22 
9 22 23 
10 23 24 
11 24 25 
12 25 26 
13 26 27 
14 27 28 
15 28 29 
16 29 30 
17 30 31 
18 31 5 
1 2 1 1
19 5 2 
1 3 1 21
20 2 32 
21 32 33 
22 33 34 
23 34 35 
24 35 36 
25 36 37 
26 37 38 
27 38 39 
28 39 40 
29 40 41 
30 41 42 
31 42 43 
32 43 44 
33 44 45 
34 45 46 
35 46 47 
36 47 48 
37 48 49 
38 49 50 
39 50 51 
40 51 3 
1 4 1 14
41 3 52 
42 52 53 
43 53 54 
44 54 55 
45 55 56 
46 56 57 
47 57 58 
48 58 59 
49 59 60 
50 60 61 
51 61 62 
52 62 63 
53 63 64 
54 64 6 
1 5 1 6
55 6 65 
56 65 66 
57 66 67 
58 67 68 
59 68 69 
60 69 4 
1 6 1 21
61 4 70 
62 70 71 
63 71 72 
64 72 73 
65 73 74 
66 74 75 
67 75 76 
68 76 77 
69 77 78 
70 78 79 
71 79 80 
72 80 81 
73 81 82 
74 82 83 
75 83 84 
76 84 85 
77 85 86 
78 86 87 
79 87 88 
80 88 89 
81 89 1 
1 7 1 4
82 5 90 
83 90 91 
84 91 92 
85 92 7 
1 8 1 3
86 7 93 
87 93 94 
88 94 8 
1 9 1 4
89 8 95 
90 95 96 
91 96 97 
92 97 9 
1 10 1 3
93 9 98 
94 98 99 
95 99 10 
1 11 1 2
96 10 100 
97 100 11 
1 12 1 3
98 11 101 
99 101 102 
100 102 12 
1 13 1 4
101 12 103 
102 103 104 
103 104 105 
104 105 13 
1 14 1 4
105 13 106 
106 106 107 
107 107 108 
108 108 14 
1 15 1 2
109 14 109 
110 109 6 
2 1 2 678
111 254 118 255 
112 253 118 254 
113 249 241 375 
114 327 276 357 
115 275 276 327 
116 90 31 5 
117 248 249 375 
118 243 124 370 
119 282 133 328 
120 200 300 365 
121 253 237 303 
122 31 90 368 
123 256 176 333 
124 124 243 376 
125 103 123 248 
126 284 186 334 
127 246 113 387 
128 253 303 371 
129 262 263 289 
130 186 284 401 
131 259 130 281 
132 353 198 372 
133 113 246 352 
134 335 351 369 
135 300 299 365 
136 312 304 341 
137 241 249 372 
138 248 123 249 
139 272 111 273 
140 133 282 389 
141 289 263 405 
142 292 355 394 
143 119 288 409 
144 254 256 333 
145 355 112 394 
146 288 119 404 
147 261 199 262 
148 182 199 261 
149 272 269 314 
150 277 304 312 
151 220 319 326 
152 196 282 328 
153 295 119 409 
154 79 258 366 
155 250 295 409 
156 249 353 372 
157 251 85 373 
158 85 251 384 
159 250 136 295 
160 12 103 248 
161 243 290 376 
162 258 79 390 
163 116 290 291 
164 284 280 401 
165 310 345 350 
166 271 223 400 
167 346 221 358 
168 345 163 350 
169 376 290 402 
170 283 280 284 
171 242 261 262 
172 227 184 293 
173 182 261 308 
174 344 168 359 
175 351 235 369 
176 227 293 294 
177 240 343 344 
178 240 241 343 
179 254 255 256 
180 223 271 392 
181 319 220 362 
182 6 65 301 
183 124 27 283 
184 356 224 378 
185 192 195 274 
186 267 166 380 
187 272 314 382 
188 274 195 275 
189 282 196 313 
190 117 276 388 
191 278 259 281 
192 246 252 352 
193 132 317 342 
194 238 337 339 
195 129 278 279 
196 8 95 134 
197 244 274 275 
198 250 287 297 
199 134 95 295 
200 166 267 391 
201 27 28 283 
202 324 316 362 
203 124 283 284 
204 307 209 387 
205 209 307 383 
206 109 6 301 
207 131 312 341 
208 279 278 281 
209 140 138 297 
210 179 182 308 
211 10 374 377 
212 129 29 278 
213 123 263 353 
214 7 93 133 
215 138 250 297 
216 239 367 375 
217 312 131 412 
218 95 96 295 
219 352 252 381 
220 176 256 403 
221 136 134 295 
222 193 192 274 
223 131 296 412 
224 118 253 371 
225 157 310 339 
226 111 272 382 
227 277 125 304 
228 94 8 126 
229 273 111 356 
230 279 281 282 
231 184 197 293 
232 240 344 359 
233 275 195 276 
234 94 126 328 
235 337 157 339 
236 30 31 259 
237 96 119 295 
238 197 285 292 
239 113 307 387 
240 195 242 276 
241 30 259 278 
242 220 324 362 
243 285 197 302 
244 126 196 328 
245 128 298 300 
246 105 13 289 
247 116 291 358 
248 317 132 407 
249 273 356 378 
250 131 71 296 
251 259 31 368 
252 298 299 300 
253 263 123 405 
254 276 242 388 
255 128 73 298 
256 143 140 297 
257 192 194 195 
258 235 202 244 
259 349 101 379 
260 228 361 364 
261 146 145 302 
262 194 190 308 
263 245 251 373 
264 195 194 242 
265 149 146 302 
266 28 129 283 
267 310 157 345 
268 191 190 192 
269 126 8 134 
270 261 194 308 
271 179 178 182 
272 288 287 409 
273 192 190 194 
274 262 199 263 
275 291 346 358 
276 14 109 260 
277 202 193 274 
278 281 130 389 
279 197 292 293 
280 286 287 288 
281 129 279 280 
282 256 255 257 
283 130 259 368 
284 298 121 299 
285 145 143 187 
286 296 128 336 
287 189 181 190 
288 285 187 286 
289 11 101 349 
290 201 193 202 
291 145 285 302 
292 185 184 227 
293 282 281 389 
294 301 65 335 
295 72 128 296 
296 279 282 313 
297 212 210 311 
298 210 238 311 
299 244 202 274 
300 74 121 298 
301 358 221 363 
302 145 187 285 
303 174 149 302 
304 177 178 179 
305 23 116 305 
306 70 71 131 
307 343 241 372 
308 171 172 173 
309 286 187 287 
310 247 349 379 
311 234 202 235 
312 72 73 128 
313 28 29 129 
314 125 277 351 
315 74 75 121 
316 184 174 197 
317 29 30 278 
318 181 179 308 
319 22 305 306 
320 26 27 124 
321 189 190 191 
322 374 294 377 
323 66 67 125 
324 222 309 310 
325 176 173 177 
326 151 149 174 
327 191 192 193 
328 175 174 184 
329 285 286 292 
330 138 136 250 
331 197 174 302 
332 121 75 303 
333 113 306 307 
334 71 72 296 
335 105 289 405 
336 215 212 311 
337 311 238 339 
338 178 173 320 
339 190 181 308 
340 23 24 116 
341 73 74 298 
342 171 173 176 
343 276 117 357 
344 201 202 234 
345 309 215 311 
346 175 184 185 
347 217 215 309 
348 222 217 309 
349 144 143 145 
350 142 140 143 
351 367 114 375 
352 247 230 364 
353 22 23 305 
354 185 227 228 
355 83 84 111 
356 187 143 297 
357 268 270 271 
358 177 179 180 
359 280 279 313 
360 113 21 306 
361 180 179 181 
362 219 217 222 
363 177 173 178 
364 245 373 406 
365 265 266 267 
366 148 146 149 
367 284 334 370 
368 219 222 223 
369 125 67 304 
370 21 22 306 
371 267 266 268 
372 151 174 175 
373 102 12 114 
374 210 208 238 
375 115 81 314 
376 318 122 319 
377 127 315 316 
378 20 21 113 
379 257 264 265 
380 173 172 320 
381 81 82 314 
382 75 76 303 
383 316 315 317 
384 114 12 248 
385 150 149 151 
386 214 212 215 
387 80 81 115 
388 77 78 118 
389 265 264 266 
390 182 198 199 
391 155 321 323 
392 216 215 217 
393 171 169 172 
394 86 87 127 
395 127 87 315 
396 218 217 219 
397 115 264 390 
398 132 16 318 
399 17 18 122 
400 17 122 318 
401 142 143 144 
402 87 88 315 
403 15 16 132 
404 16 17 318 
405 268 269 270 
406 270 272 273 
407 249 123 353 
408 257 255 258 
409 144 145 146 
410 206 330 332 
411 188 181 189 
412 158 155 323 
413 214 215 216 
414 148 149 150 
415 167 162 168 
416 257 258 264 
417 170 169 171 
418 103 104 123 
419 242 194 261 
420 268 266 269 
421 270 269 272 
422 216 217 218 
423 218 219 224 
424 67 68 304 
425 301 335 369 
426 160 158 165 
427 167 168 169 
428 238 208 332 
429 330 153 332 
430 287 187 297 
431 167 169 170 
432 159 161 163 
433 310 309 339 
434 213 212 214 
435 150 151 152 
436 160 165 322 
437 135 134 136 
438 211 210 212 
439 168 162 322 
440 198 178 320 
441 166 162 167 
442 214 216 220 
443 245 224 251 
444 290 226 291 
445 240 239 241 
446 218 224 245 
447 200 193 201 
448 256 257 331 
449 151 175 321 
450 161 160 162 
451 260 109 301 
452 209 208 210 
453 165 158 323 
454 100 11 110 
455 154 156 157 
456 129 280 283 
457 141 140 142 
458 162 160 322 
459 98 99 112 
460 154 152 155 
461 159 160 161 
462 159 158 160 
463 182 178 198 
464 211 212 213 
465 161 162 166 
466 207 206 208 
467 236 234 277 
468 65 66 335 
469 205 164 206 
470 93 94 328 
471 211 213 246 
472 246 213 252 
473 147 146 148 
474 216 218 324 
475 152 151 321 
476 153 152 154 
477 209 210 211 
478 214 220 326 
479 156 158 159 
480 180 181 188 
481 213 214 326 
482 220 216 324 
483 96 97 119 
484 235 244 386 
485 203 253 254 
486 257 265 331 
487 218 245 324 
488 207 208 209 
489 156 155 158 
490 137 136 138 
491 150 152 153 
492 206 164 330 
493 154 155 156 
494 175 185 325 
495 287 250 409 
496 252 213 326 
497 139 138 140 
498 144 146 147 
499 205 206 207 
500 13 106 117 
501 361 110 364 
502 199 198 353 
503 228 227 361 
504 205 207 221 
505 147 164 204 
506 141 142 183 
507 233 239 240 
508 147 148 164 
509 204 164 205 
510 155 152 321 
511 191 193 200 
512 203 188 237 
513 107 108 327 
514 135 136 137 
515 108 14 120 
516 185 228 229 
517 139 140 141 
518 323 321 325 
519 222 310 350 
520 203 237 253 
521 177 180 333 
522 180 188 203 
523 201 234 236 
524 148 150 330 
525 141 183 225 
526 243 226 290 
527 232 230 247 
528 233 232 239 
529 142 144 329 
530 225 183 226 
531 126 135 196 
532 183 142 329 
533 66 125 335 
534 236 277 312 
535 321 175 325 
536 185 229 325 
537 225 226 243 
538 229 228 230 
539 208 206 332 
540 164 148 330 
541 68 69 341 
542 128 300 336 
543 180 203 333 
544 231 232 233 
545 317 315 342 
546 88 89 342 
547 153 154 337 
548 291 226 338 
549 176 177 333 
550 137 138 139 
551 150 153 330 
552 264 115 385 
553 126 134 135 
554 169 168 344 
555 238 332 337 
556 144 147 329 
557 137 139 186 
558 292 286 355 
559 231 230 232 
560 290 116 402 
561 183 329 338 
562 147 204 329 
563 335 125 351 
564 229 230 231 
565 332 153 337 
566 20 113 352 
567 159 163 345 
568 203 254 333 
569 242 262 388 
570 307 306 363 
571 108 120 327 
572 163 161 347 
573 329 204 338 
574 154 157 337 
575 157 156 345 
576 133 93 328 
577 309 311 339 
578 277 234 351 
579 124 284 370 
580 304 68 341 
581 141 225 334 
582 313 196 360 
583 237 188 340 
584 303 76 371 
585 165 323 348 
586 78 79 366 
587 139 141 334 
588 26 124 376 
589 91 92 130 
590 205 221 346 
591 299 121 397 
592 255 118 366 
593 264 258 390 
594 322 165 354 
595 226 183 338 
596 186 139 334 
597 188 189 340 
598 198 320 372 
599 315 88 342 
600 343 172 344 
601 77 118 371 
602 13 117 289 
603 172 169 344 
604 110 11 349 
605 322 354 359 
606 168 322 359 
607 369 235 386 
608 291 338 346 
609 316 324 406 
610 83 111 382 
611 156 159 345 
612 85 86 373 
613 325 229 348 
614 84 85 384 
615 116 24 402 
616 349 247 364 
617 320 172 343 
618 99 10 377 
619 314 82 382 
620 161 166 347 
621 204 205 346 
622 223 350 400 
623 223 222 350 
624 165 348 354 
625 224 219 378 
626 340 299 397 
627 122 18 381 
628 117 106 357 
629 268 271 391 
630 122 381 411 
631 107 327 357 
632 123 104 405 
633 338 204 346 
634 4 70 398 
635 234 235 351 
636 244 275 395 
637 120 14 260 
638 323 325 348 
639 196 135 360 
640 79 80 390 
641 229 231 348 
642 191 200 365 
643 166 167 380 
644 266 264 385 
645 132 318 407 
646 100 110 374 
647 89 1 393 
648 1 15 393 
649 334 225 370 
650 19 20 352 
651 239 232 367 
652 69 4 398 
653 137 186 360 
654 170 171 403 
655 331 170 403 
656 102 114 379 
657 294 293 394 
658 98 112 396 
659 340 189 365 
660 209 211 387 
661 286 288 355 
662 265 267 410 
663 227 294 361 
664 256 331 403 
665 300 200 399 
666 207 209 383 
667 275 327 395 
668 251 224 356 
669 263 199 353 
670 348 231 354 
671 305 358 363 
672 299 340 365 
673 305 116 358 
674 106 107 357 
675 271 347 391 
676 119 97 404 
677 201 236 399 
678 314 269 385 
679 231 233 354 
680 230 228 364 
681 324 245 406 
682 306 305 363 
683 236 336 399 
684 293 292 394 
685 354 233 359 
686 241 239 375 
687 316 317 362 
688 19 352 381 
689 233 240 359 
690 189 191 365 
691 135 137 360 
692 118 78 366 
693 91 130 368 
694 307 363 383 
695 110 361 374 
696 7 133 408 
697 90 91 368 
698 260 301 369 
699 258 255 366 
700 112 355 396 
701 271 270 392 
702 296 336 412 
703 262 289 388 
704 381 252 411 
705 76 77 371 
706 232 247 367 
707 115 314 385 
708 225 243 370 
709 114 367 379 
710 267 380 410 
711 86 127 373 
712 10 100 374 
713 130 92 408 
714 101 102 379 
715 25 26 376 
716 114 248 375 
717 326 319 411 
718 219 223 378 
719 110 349 364 
720 112 99 377 
721 396 288 404 
722 270 273 392 
723 70 131 398 
724 18 19 381 
725 167 170 380 
726 25 376 402 
727 82 83 382 
728 111 84 384 
729 373 127 406 
730 319 122 411 
731 289 117 388 
732 327 120 395 
733 320 343 372 
734 319 362 407 
735 303 237 397 
736 336 300 399 
737 347 166 391 
738 163 347 400 
739 360 186 401 
740 336 236 412 
741 342 89 393 
742 9 98 396 
743 236 312 412 
744 269 266 385 
745 377 294 394 
746 355 288 396 
747 221 207 383 
748 211 246 387 
749 121 303 397 
750 267 268 391 
751 80 115 390 
752 389 130 408 
753 15 132 393 
754 104 105 405 
755 341 69 398 
756 362 317 407 
757 24 25 402 
758 237 340 397 
759 127 316 406 
760 200 201 399 
761 318 319 407 
762 9 396 404 
763 363 221 383 
764 280 313 401 
765 361 294 374 
766 97 9 404 
767 170 331 410 
768 347 271 400 
769 131 341 398 
770 171 176 403 
771 132 342 393 
772 313 360 401 
773 331 265 410 
774 252 326 411 
775 92 7 408 
776 260 369 386 
777 120 260 386 
778 367 247 379 
779 356 111 384 
780 251 356 384 
781 350 163 400 
782 273 378 392 
783 120 386 395 
784 378 223 392 
785 112 377 394 
786 386 244 395 
787 133 389 408 
788 380 170 410 
2 2 2 431
789 503 481 523 
790 521 466 537 
791 490 418 492 
792 503 523 573 
793 433 518 575 
794 425 535 541 
795 498 420 528 
796 423 514 588 
797 489 572 574 
798 518 433 556 
799 417 497 520 
800 422 496 519 
801 416 502 533 
802 514 423 558 
803 13 105 520 
804 466 521 578 
805 418 490 503 
806 497 521 537 
807 497 417 521 
808 496 422 520 
809 535 536 541 
810 555 424 585 
811 431 536 585 
812 502 437 533 
813 424 527 585 
814 420 498 529 
815 536 431 559 
816 516 426 565 
817 422 13 520 
818 33 546 568 
819 512 468 515 
820 523 481 526 
821 552 516 565 
822 492 418 553 
823 566 513 574 
824 7 546 570 
825 419 566 574 
826 527 431 585 
827 33 34 546 
828 434 64 594 
829 64 109 594 
830 521 532 578 
831 433 7 570 
832 489 500 572 
833 421 523 526 
834 101 11 435 
835 421 511 525 
836 572 419 574 
837 497 496 520 
838 104 103 531 
839 511 421 526 
840 562 499 569 
841 541 536 559 
842 521 531 532 
843 498 499 529 
844 535 425 590 
845 413 562 569 
846 515 468 581 
847 109 64 6 
848 429 62 501 
849 505 510 517 
850 528 420 589 
851 422 519 551 
852 502 416 596 
853 504 427 505 
854 105 417 520 
855 504 505 517 
856 428 518 584 
857 516 434 580 
858 549 532 582 
859 8 94 428 
860 429 501 552 
861 417 104 531 
862 529 499 562 
863 479 481 503 
864 439 437 502 
865 490 479 503 
866 103 430 531 
867 532 549 578 
868 38 427 504 
869 435 11 533 
870 63 434 501 
871 515 489 574 
872 63 64 434 
873 501 434 516 
874 468 512 560 
875 11 100 533 
876 40 421 525 
877 506 427 525 
878 580 434 594 
879 511 506 525 
880 432 504 517 
881 437 435 533 
882 477 485 519 
883 489 515 581 
884 505 506 507 
885 505 507 510 
886 521 417 531 
887 509 513 514 
888 461 459 488 
889 475 477 496 
890 432 517 518 
891 489 488 500 
892 100 416 533 
893 505 427 506 
894 432 37 504 
895 457 475 537 
896 496 477 519 
897 475 474 477 
898 457 474 475 
899 461 488 489 
900 514 513 566 
901 36 37 432 
902 507 508 509 
903 61 62 429 
904 414 101 435 
905 432 518 556 
906 420 60 522 
907 436 435 437 
908 38 39 427 
909 444 439 459 
910 459 439 502 
911 509 512 513 
912 518 517 584 
913 62 63 501 
914 61 429 522 
915 510 507 558 
916 477 484 485 
917 455 456 457 
918 507 506 508 
919 460 459 461 
920 488 459 502 
921 500 99 572 
922 457 473 474 
923 524 452 540 
924 472 524 540 
925 40 41 421 
926 421 41 523 
927 37 38 504 
928 509 514 558 
929 59 420 529 
930 43 44 418 
931 58 59 529 
932 414 435 436 
933 424 49 527 
934 427 39 525 
935 93 7 433 
936 475 497 537 
937 467 462 468 
938 454 453 455 
939 509 508 512 
940 455 457 537 
941 465 472 540 
942 444 459 460 
943 35 556 570 
944 415 47 530 
945 50 431 527 
946 50 51 431 
947 457 456 473 
948 438 437 439 
949 41 42 523 
950 452 524 542 
951 534 469 538 
952 466 455 537 
953 513 512 515 
954 524 487 545 
955 465 471 472 
956 455 453 456 
957 454 534 538 
958 449 454 538 
959 472 486 487 
960 48 424 530 
961 60 61 522 
962 472 471 486 
963 48 49 424 
964 472 487 524 
965 46 47 415 
966 454 455 466 
967 49 50 527 
968 446 449 538 
969 531 430 532 
970 39 40 525 
971 47 48 530 
972 465 470 471 
973 446 448 449 
974 477 474 484 
975 547 469 549 
976 449 452 453 
977 59 60 420 
978 441 443 469 
979 449 453 454 
980 105 104 417 
981 443 446 538 
982 451 464 465 
983 449 448 452 
984 56 57 413 
985 440 439 444 
986 451 465 540 
987 486 471 535 
988 446 447 448 
989 102 101 414 
990 556 433 570 
991 443 445 446 
992 55 56 539 
993 473 498 528 
994 471 478 535 
995 56 413 539 
996 452 448 540 
997 469 443 538 
998 460 461 462 
999 476 456 542 
1000 456 453 542 
1001 471 470 478 
1002 535 478 536 
1003 511 526 560 
1004 54 55 425 
1005 454 466 534 
1006 465 464 470 
1007 441 442 443 
1008 436 437 438 
1009 103 12 430 
1010 53 54 541 
1011 448 451 540 
1012 448 447 451 
1013 473 476 498 
1014 446 445 447 
1015 425 55 539 
1016 493 494 495 
1017 518 428 575 
1018 453 452 542 
1019 445 442 450 
1020 443 442 445 
1021 498 476 499 
1022 441 440 442 
1023 440 444 543 
1024 451 458 464 
1025 451 447 458 
1026 470 464 483 
1027 98 9 419 
1028 54 425 541 
1029 491 492 493 
1030 415 530 564 
1031 450 442 543 
1032 414 436 482 
1033 493 492 494 
1034 441 469 547 
1035 473 456 476 
1036 438 440 441 
1037 480 490 491 
1038 445 450 544 
1039 438 439 440 
1040 463 479 480 
1041 474 473 528 
1042 442 440 543 
1043 447 445 544 
1044 8 428 550 
1045 491 490 492 
1046 458 447 544 
1047 476 542 545 
1048 463 462 467 
1049 100 10 416 
1050 479 467 481 
1051 475 496 497 
1052 542 524 545 
1053 480 479 490 
1054 99 500 592 
1055 499 476 545 
1056 482 547 549 
1057 463 467 479 
1058 551 519 565 
1059 508 506 511 
1060 418 44 553 
1061 566 97 588 
1062 460 462 463 
1063 35 36 556 
1064 444 460 548 
1065 469 534 549 
1066 460 463 548 
1067 543 444 548 
1068 484 474 528 
1069 438 441 547 
1070 482 436 547 
1071 96 95 423 
1072 564 530 591 
1073 470 483 555 
1074 463 480 548 
1075 501 516 552 
1076 522 429 571 
1077 52 53 559 
1078 58 529 562 
1079 95 8 550 
1080 436 438 547 
1081 413 57 562 
1082 9 97 566 
1083 36 432 556 
1084 543 548 554 
1085 418 503 573 
1086 44 45 553 
1087 108 107 426 
1088 512 508 560 
1089 494 492 553 
1090 480 491 554 
1091 554 491 557 
1092 483 464 563 
1093 548 480 554 
1094 450 554 557 
1095 478 470 555 
1096 107 106 551 
1097 5 2 576 
1098 12 102 567 
1099 450 543 554 
1100 430 12 567 
1101 523 42 573 
1102 106 13 422 
1103 507 509 558 
1104 414 482 567 
1105 485 552 565 
1106 491 493 557 
1107 43 418 573 
1108 493 495 561 
1109 544 450 557 
1110 423 95 550 
1111 461 489 581 
1112 53 541 559 
1113 429 552 571 
1114 561 495 563 
1115 468 462 581 
1116 487 486 583 
1117 51 3 587 
1118 3 52 587 
1119 32 33 577 
1120 508 511 560 
1121 428 94 575 
1122 426 551 565 
1123 57 58 562 
1124 482 549 582 
1125 544 557 561 
1126 46 415 579 
1127 458 544 561 
1128 420 522 589 
1129 458 561 563 
1130 557 493 561 
1131 526 481 586 
1132 7 92 546 
1133 486 535 590 
1134 464 458 563 
1135 426 516 580 
1136 99 98 572 
1137 426 107 551 
1138 553 45 579 
1139 494 553 579 
1140 519 485 565 
1141 499 545 569 
1142 549 534 578 
1143 33 568 577 
1144 481 467 586 
1145 106 422 551 
1146 522 571 589 
1147 514 566 588 
1148 483 564 591 
1149 109 14 594 
1150 552 485 571 
1151 583 486 590 
1152 483 563 564 
1153 92 91 568 
1154 478 555 585 
1155 488 502 596 
1156 550 584 593 
1157 419 9 566 
1158 10 99 592 
1159 102 414 567 
1160 96 423 588 
1161 517 510 584 
1162 545 487 569 
1163 108 426 580 
1164 93 433 575 
1165 510 558 593 
1166 550 428 584 
1167 563 495 564 
1168 485 484 571 
1169 34 35 570 
1170 546 34 570 
1171 546 92 568 
1172 513 515 574 
1173 42 43 573 
1174 560 526 586 
1175 94 93 575 
1176 567 482 582 
1177 579 415 595 
1178 91 90 577 
1179 539 413 583 
1180 98 419 572 
1181 534 466 578 
1182 2 32 576 
1183 90 5 576 
1184 564 495 595 
1185 14 580 594 
1186 45 46 579 
1187 415 564 595 
1188 530 424 591 
1189 462 461 581 
1190 500 488 596 
1191 14 108 580 
1192 584 510 593 
1193 431 51 587 
1194 532 430 582 
1195 467 468 586 
1196 571 484 589 
1197 536 478 585 
1198 568 91 577 
1199 97 96 588 
1200 52 559 587 
1201 468 560 586 
1202 484 528 589 
1203 424 555 591 
1204 425 539 590 
1205 558 423 593 
1206 495 494 595 
1207 555 483 591 
1208 416 10 592 
1209 90 576 577 
1210 559 431 587 
1211 539 583 590 
1212 430 567 582 
1213 413 569 583 
1214 423 550 593 
1215 569 487 583 
1216 494 579 595 
1217 576 32 577 
1218 592 500 596 
1219 416 592 596 
$EndElements
