$MeshFormat
4.1 0 8
$EndMeshFormat
$PhysicalNames
7
1 10 "boundary_xneg"
1 11 "boundary_xpos"
1 12 "boundary_yneg"
1 13 "boundary_ypos"
1 20 "fault"
2 1 "material-id:1"
2 2 "material-id:2"
$EndPhysicalNames
$Entities
14 15 2 0
1 370000 6527000 0 0 
2 389000 6527000 0 0 
3 389000 6548000 0 0 
4 370000 6548000 0 0 
5 388000 6527000 0 0 
6 375500 6548000 0 0 
7 387400 6530000 0 0 
8 385500 6532000 0 0 
9 383500 6534500 0 0 
10 381900 6536400 0 0 
11 380900 6537700 0 0 
12 379100 6540000 0 0 
13 377500 6543500 0 0 
14 376200 6546300 0 0 
1 370000 6527000 0 388000 6527000 0 1 12 2 1 -5 
2 388000 6527000 0 389000 6527000 0 1 12 2 5 -2 
3 389000 6527000 0 389000 6548000 0 1 11 2 2 -3 
4 375500 6548000 0 389000 6548000 0 1 13 2 3 -6 
5 370000 6548000 0 375500 6548000 0 1 13 2 6 -4 
6 370000 6527000 0 370000 6548000 0 1 10 2 4 -1 
7 387400 6527000 0 388000 6530000 0 1 20 2 5 -7 
8 385500 6530000 0 387400 6532000 0 1 20 2 7 -8 
9 383500 6532000 0 385500 6534500 0 1 20 2 8 -9 
10 381900 6534500 0 383500 6536400 0 1 20 2 9 -10 
11 380900 6536400 0 381900 6537700 0 1 20 2 10 -11 
12 379100 6537700 0 380900 6540000 0 1 20 2 11 -12 
13 377500 6540000 0 379100 6543500 0 1 20 2 12 -13 
14 376200 6543500 0 377500 6546300 0 1 20 2 13 -14 
15 375500 6546300 0 376200 6548000 0 1 20 2 14 -6 
1 370000 6527000 0 388000 6548000 0 1 1 12 1 7 8 9 10 11 12 13 14 15 5 6 
2 375500 6527000 0 389000 6548000 0 1 2 12 2 3 4 -15 -14 -13 -12 -11 -10 -9 -8 -7 
$EndEntities
$Nodes
31 522 1 522
0 1 0 1
1
370000 6527000 0
0 2 0 1
2
389000 6527000 0
0 3 0 1
3
389000 6548000 0
0 4 0 1
4
370000 6548000 0
0 5 0 1
5
388000 6527000 0
0 6 0 1
6
375500 6548000 0
0 7 0 1
7
387400 6530000 0
0 8 0 1
8
385500 6532000 0
0 9 0 1
9
383500 6534500 0
0 10 0 1
10
381900 6536400 0
0 11 0 1
11
380900 6537700 0
0 12 0 1
12
379100 6540000 0
0 13 0 1
13
377500 6543500 0
0 14 0 1
14
376200 6546300 0
1 1 0 17
15
16
17
18
19
20
21
22
23
24
25
26
27
28
29
30
31
371000 6527000 0
372000 6527000 0
373000 6527000 0
374000 6527000 0
375000 6527000 0
376000 6527000 0
377000 6527000 0
378000 6527000 0
379000 6527000 0
380000 6527000 0
381000 6527000 0
382000 6527000 0
383000 6527000 0
384000 6527000 0
385000 6527000 0
386000 6527000 0
387000 6527000 0
1 2 0 0
1 3 0 20
32
33
34
35
36
37
38
39
40
41
42
43
44
45
46
47
48
49
50
51
389000 6528000 0
389000 6529000 0
389000 6530000 0
389000 6531000 0
389000 6532000 0
389000 6533000 0
389000 6534000 0
389000 6535000 0
389000 6536000 0
389000 6537000 0
389000 6538000 0
389000 6539000 0
389000 6540000 0
389000 6541000 0
389000 6542000 0
389000 6543000 0
389000 6544000 0
389000 6545000 0
389000 6546000 0
389000 6547000 0
1 4 0 13
52
53
54
55
56
57
58
59
60
61
62
63
64
388035.7142857143 6548000 0
387071.4285714286 6548000 0
386107.1428571428 6548000 0
385142.8571428572 6548000 0
384178.5714285714 6548000 0
383214.2857142857 6548000 0
382250 6548000 0
381285.7142857143 6548000 0
380321.4285714286 6548000 0
379357.1428571428 6548000 0
378392.8571428572 6548000 0
377428.5714285714 6548000 0
376464.2857142857 6548000 0
1 5 0 5
65
66
67
68
69
374583.3333333333 6548000 0
373666.6666666667 6548000 0
372750 6548000 0
371833.3333333333 6548000 0
370916.6666666667 6548000 0
1 6 0 20
70
71
72
73
74
75
76
77
78
79
80
81
82
83
84
85
86
87
88
89
370000 6547000 0
370000 6546000 0
370000 6545000 0
370000 6544000 0
370000 6543000 0
370000 6542000 0
370000 6541000 0
370000 6540000 0
370000 6539000 0
370000 6538000 0
370000 6537000 0
370000 6536000 0
370000 6535000 0
370000 6534000 0
370000 6533000 0
370000 6532000 0
370000 6531000 0
370000 6530000 0
370000 6529000 0
370000 6528000 0
1 7 0 3
90
91
92
387850 6527750 0
387700 6528500 0
387550 6529250 0
1 8 0 2
93
94
386766.6666666667 6530666.666666667 0
386133.3333333333 6531333.333333333 0
1 9 0 3
95
96
97
385000 6532625 0
384500 6533250 0
384000 6533875 0
1 10 0 2
98
99
382966.6666666667 6535133.333333333 0
382433.3333333333 6535766.666666667 0
1 11 0 1
100
381400 6537050 0
1 12 0 2
101
102
380300 6538466.666666667 0
379700 6539233.333333333 0
1 13 0 3
103
104
105
378700 6540875 0
378300 6541750 0
377900 6542625 0
1 14 0 3
106
107
108
377175 6544200 0
376850 6544900 0
376525 6545600 0
1 15 0 1
109
375850 6547150 0
2 1 0 255
110
111
112
113
114
115
116
117
118
119
120
121
122
123
124
125
126
127
128
129
130
131
132
133
134
135
136
137
138
139
140
141
142
143
144
145
146
147
148
149
150
151
152
153
154
155
156
157
158
159
160
161
162
163
164
165
166
167
168
169
170
171
172
173
174
175
176
177
178
179
180
181
182
183
184
185
186
187
188
189
190
191
192
193
194
195
196
197
198
199
200
201
202
203
204
205
206
207
208
209
210
211
212
213
214
215
216
217
218
219
220
221
222
223
224
225
226
227
228
229
230
231
232
233
234
235
236
237
238
239
240
241
242
243
244
245
246
247
248
249
250
251
252
253
254
255
256
257
258
259
260
261
262
263
264
265
266
267
268
269
270
271
272
273
274
275
276
277
278
279
280
281
282
283
284
285
286
287
288
289
290
291
292
293
294
295
296
297
298
299
300
301
302
303
304
305
306
307
308
309
310
311
312
313
314
315
316
317
318
319
320
321
322
323
324
325
326
327
328
329
330
331
332
333
334
335
336
337
338
339
340
341
342
343
344
345
346
347
348
349
350
351
352
353
354
355
356
357
358
359
360
361
362
363
364
371000 6534000 0
381372.7350874553 6535776.031414455 0
378617.504996182 6539268.055255702 0
377993.0162816301 6527991.998409081 0
382983.9814530488 6533894.22104099 0
371000 6540000 0
376692.6087407435 6543548.712683082 0
382000 6528000 0
370910.2673422672 6543997.741618929 0
374998.9963309499 6527999.11082639 0
384472.0396540715 6532008.895996338 0
375712.7816139027 6545701.957119728 0
370996.2084109149 6530999.38683114 0
385000 6528000 0
371833.3333333333 6547083.333333333 0
373000 6528000 0
385546.7233964711 6530533.720963903 0
379784.8817103301 6537736.645349227 0
386795.1586115796 6529335.99148527 0
370996.4360154837 6538002.578603903 0
373614.2449392925 6546924.955879381 0
377371.1297891655 6541889.480518643 0
370972.1053818836 6546069.812664017 0
371000 6543000 0
380995.0807488024 6527994.949354011 0
384000 6528000 0
376995.0742567523 6527990.960192429 0
379996.2072300166 6527988.49080616 0
371000 6536000 0
371000 6533000 0
370988.5379779235 6542005.998210879 0
370997.5570137993 6530000.687241569 0
372000 6528000 0
371000 6528000 0
380325.8082152437 6537058.539799731 0
381914.0486753884 6535133.620904893 0
383475.8337201744 6533262.956555841 0
370936.3763014589 6547056.721150635 0
386891.8165192381 6527814.343575239 0
377029.4854673697 6542764.965706606 0
377739.2122627795 6540996.659217928 0
376048.4118083501 6544986.710296327 0
375379.4306632206 6546460.929274913 0
378141.7438309669 6540126.416159985 0
376375.7644993383 6544277.903799873 0
374989.9487992621 6547254.542829955 0
371986.0721383978 6533986.072138398 0
380833.7570800877 6535145.588750999 0
377972.3465284859 6528966.294908335 0
382449.3227584081 6533295.055376073 0
377161.3588889188 6540247.246441153 0
372104.0825627627 6542965.288219917 0
376472.7575221894 6542036.315163787 0
381947.0581356905 6528952.611275703 0
375215.8014208495 6545065.416954276 0
371997.1623113422 6530997.162311343 0
372995.3324181321 6528995.650643565 0
371896.1524268696 6546187.180906462 0
384996.7808430907 6529004.738928071 0
379210.7860567766 6537070.903665242 0
375860.0305016808 6543634.07603767 0
385990.6267265013 6527990.626726502 0
374426.1860998821 6546528.280051213 0
386297.4482148284 6529881.638906643 0
370956.7923141104 6545039.401847226 0
380975.7440825754 6528975.744082576 0
382990.8568012727 6527985.513785273 0
378993.5215819532 6527985.736685092 0
379191.8177412852 6538498.214710009 0
370995.0566697218 6535004.943330279 0
370990.9694269596 6541009.03057304 0
372765.0745442387 6547098.407877572 0
375995.5896687518 6527994.086156183 0
370994.1288649403 6532005.87113506 0
370998.0509493963 6537001.949050603 0
370997.9697731368 6539002.030226863 0
373999.1632142215 6527999.163214222 0
371998.118929053 6528999.009044841 0
370998.8938240917 6529001.106175908 0
382500.4391281747 6534517.344604424 0
385004.7123577183 6531341.301174 0
383970.8393224406 6532636.738495213 0
380842.4566916927 6536412.25443853 0
386807.6123852435 6528632.307596961 0
377609.8024844779 6539372.796437114 0
376159.199171525 6542865.107551006 0
376801.2734648194 6541140.622781886 0
374881.508710905 6545772.977212299 0
375543.3336174557 6544353.154071152 0
371992.6714834632 6537005.379465933 0
371954.150610189 6540845.074590765 0
376628.8314628025 6539490.076745689 0
383403.9365373541 6531997.224970655 0
375884.2388780963 6541329.428332862 0
374381.8926371134 6545122.624730045 0
372067.1969494137 6545290.468863205 0
381923.1912895284 6529921.169452871 0
384012.2886130087 6528967.390631201 0
378953.9009488497 6528961.206534665 0
371978.9631914346 6534983.560022985 0
375986.1798412775 6528978.967177146 0
371985.9986503224 6531989.032096724 0
373990.5381826106 6528992.182319826 0
378658.5205309 6537768.015629725 0
381975.147204571 6533936.189388794 0
380298.7054792288 6535782.042535254 0
384376.0994914951 6530710.253974971 0
371950.7492984009 6543928.89405361 0
375296.9201645656 6542974.25696271 0
382932.8521946275 6528945.692080441 0
379916.4738574944 6528963.254562422 0
371963.1824847343 6542014.962270475 0
376975.8579788786 6528972.109828339 0
371981.4245754654 6533004.647562933 0
372037.4095427551 6539047.261147002 0
372990.1037292739 6529990.572899809 0
371994.8204469155 6530002.341864427 0
381372.3613215754 6534452.373192541 0
385916.1761211121 6528921.305876451 0
378095.6713542276 6538529.951647897 0
372924.3046539903 6546036.481595569 0
382930.7176522976 6532644.94435976 0
379744.8551037233 6536418.429015545 0
385520.4006751137 6529615.699628714 0
374677.745555043 6544425.356128391 0
376235.3808943981 6540405.469550055 0
375584.8941239374 6542172.432741202 0
374984.2513193172 6543711.704644207 0
374172.959830462 6545758.655143616 0
374256.0759676874 6547341.555752111 0
372958.8442178001 6533008.652496063 0
379719.7528009347 6535138.811263002 0
377463.9213084858 6537718.452266496 0
378946.1444687199 6529924.178604529 0
380658.2099288785 6533740.998571938 0
375301.2993146157 6540584.453898162 0
373022.2232199265 6542027.128307629 0
381880.1888715664 6532665.113120448 0
374081.8311555477 6543772.110674319 0
372988.5111822975 6530986.66728742 0
376959.9035064699 6529945.516261051 0
373549.7941755931 6545326.399148632 0
382850.5612474116 6529873.062038324 0
374697.7481451035 6542326.958649953 0
373028.8160653597 6543728.173584457 0
371987.2846100832 6536018.094855851 0
380088.4419962324 6529915.567737098 0
380989.9234282984 6529911.53006747 0
374987.4062862257 6528992.50723246 0
371909.1813023309 6539923.928793498 0
373978.4749301171 6529980.122131587 0
371991.1347233095 6538089.725829935 0
372950.6287654217 6534962.398729243 0
378082.6077322646 6537028.720686552 0
378637.9177289734 6536396.491014676 0
384746.2312342973 6529861.99829958 0
382385.729756268 6532013.653950093 0
383897.5234445852 6531351.517073059 0
372864.8575965647 6545287.655619326 0
377059.8229689377 6538602.881869956 0
375671.2467136875 6539654.303630603 0
374985.4042772127 6541478.558713738 0
374411.5620893271 6543083.075655775 0
373775.3507828251 6544482.368604444 0
373721.4935091044 6546154.224431237 0
377578.9228036465 6536353.928950816 0
379752.2149523142 6530843.017126502 0
374710.6470509091 6539831.803888047 0
373973.0025899658 6530970.373741298 0
381299.359621176 6531984.237022353 0
374971.0906985841 6529977.086906429 0
372973.4322508109 6537830.536029497 0
376487.6841076643 6537834.269147225 0
372954.7369649837 6535929.851084144 0
372720.3808748191 6541166.688279621 0
372858.0264525726 6540036.228777063 0
381017.3338269227 6530812.068175946 0
374063.2477514758 6541685.515354631 0
382592.4096867843 6530494.877089515 0
377935.4266103546 6529937.039555899 0
372963.0597997733 6532031.591346612 0
375975.9491048238 6529958.750279388 0
373040.1830847935 6542915.439443519 0
372958.8145654552 6533989.656302186 0
380265.5147120781 6534495.478575162 0
381442.3780873016 6533367.356253012 0
383766.7867338363 6529883.616117625 0
379168.5913383844 6535768.991447488 0
374403.750869852 6540782.207208667 0
376070.3262169527 6538743.120127868 0
382768.7578665271 6531260.901215636 0
373801.0405453344 6542536.686653452 0
372932.0251082939 6544519.547360823 0
373607.581206094 6543176.736350016 0
376953.2596335046 6530915.119814408 0
378600.3143258537 6535092.078136102 0
373921.7698884477 6534960.797425212 0
375505.362306743 6538047.841429228 0
374950.7819621365 6530954.866278601 0
379682.7675129741 6533886.193627314 0
373933.819358591 6533006.566487404 0
372970.8916345712 6536857.068361983 0
373942.5326293654 6531978.119995899 0
378875.3243211179 6530871.475534343 0
382039.933120303 6530773.161147227 0
372961.9417306231 6538798.760104122 0
376938.0408902993 6536877.555969957 0
380230.9586691214 6531786.831129351 0
380030.9070701014 6533248.390418253 0
380738.6938054787 6532766.12959891 0
373880.4727685258 6540143.626156997 0
378068.8114799171 6535734.806048922 0
375092.903564464 6538936.075774121 0
373491.8031213684 6540970.584724885 0
383375.3564117732 6530595.704584856 0
381897.9729317524 6531376.789802163 0
377458.3526143588 6535059.431850709 0
379132.5726663452 6531831.539428895 0
374663.0528610977 6538260.080685005 0
379084.9807897814 6533269.990229827 0
374913.0567445973 6531933.247534832 0
373928.1118801697 6536170.596028711 0
375931.107325946 6530927.533035418 0
373924.8310390934 6533994.780951574 0
377920.0492658133 6530901.961605902 0
379628.8543902063 6532569.980677021 0
379147.4982748843 6534497.761738546 0
375843.4575553125 6537135.344441237 0
376177.2033857149 6536174.219276878 0
373938.1363479271 6539097.306186323 0
373895.7998236687 6538095.338971057 0
375037.1852396855 6534929.690823575 0
374889.3872341644 6532956.965496993 0
378699.1526813951 6533891.32330336 0
377915.5101615199 6531854.931408891 0
374837.8595450477 6537494.636370553 0
376866.3665024807 6531868.26457933 0
375885.9265482726 6531892.204798527 0
378571.5523164013 6532575.731369268 0
373934.6663109551 6537156.016989458 0
375001.9027314628 6536487.926174954 0
376982.6779364512 6535818.261064792 0
378043.5978173061 6534248.737820283 0
376865.962301064 6534280.789451784 0
378221.2899922959 6533400.447055982 0
376724.7434519003 6532740.931687317 0
374882.2808285104 6533999.886648049 0
375837.6496925454 6532849.736884208 0
375484.8493758036 6535658.680104326 0
375748.7170382979 6533901.294492694 0
376250.7068416251 6535117.481009251 0
377336.7287773094 6533455.447030501 0
374658.0358256445 6535666.756687898 0
377606.0318669846 6532649.292188548 0
376518.0580280661 6533469.56288621 0
2 2 0 158
365
366
367
368
369
370
371
372
373
374
375
376
377
378
379
380
381
382
383
384
385
386
387
388
389
390
391
392
393
394
395
396
397
398
399
400
401
402
403
404
405
406
407
408
409
410
411
412
413
414
415
416
417
418
419
420
421
422
423
424
425
426
427
428
429
430
431
432
433
434
435
436
437
438
439
440
441
442
443
444
445
446
447
448
449
450
451
452
453
454
455
456
457
458
459
460
461
462
463
464
465
466
467
468
469
470
471
472
473
474
475
476
477
478
479
480
481
482
483
484
485
486
487
488
489
490
491
492
493
494
495
496
497
498
499
500
501
502
503
504
505
506
507
508
509
510
511
512
513
514
515
516
517
518
519
520
521
522
388000 6542000 0
381956.5564321455 6537686.289794688 0
379269.0087387065 6541628.609553495 0
388000 6538000 0
384518.3078841593 6534487.840185885 0
380321.4285714286 6547035.714285715 0
384175.5850787079 6547032.014278738 0
378008.5715509263 6544106.691444024 0
388000 6544000 0
388000 6534000 0
377329.0696107404 6545529.599965321 0
386107.1428571428 6547035.714285715 0
386024.9221862975 6532604.02400034 0
387960.5578297981 6531932.155808777 0
383497.5219632246 6535754.021962311 0
388000 6546000 0
380891.8127235213 6539220.007554004 0
377554.6859976899 6547067.225131771 0
387954.0123741432 6530685.518226266 0
380282.1106100822 6540005.742801756 0
387071.4285714286 6547035.714285715 0
388000 6535000 0
387955.3088151313 6535955.741775159 0
388000 6539000 0
388008.3049281117 6539995.618796906 0
378428.0536360315 6547042.541903238 0
381285.7142857143 6547035.714285715 0
382976.3939325715 6536390.152900912 0
382250 6547035.714285715 0
388021.268568145 6547015.316187192 0
385537.4151495805 6533235.452258934 0
387290.6361035024 6531330.774817042 0
388149.9883182187 6529867.304070695 0
388299.3752880403 6529179.786210218 0
376740.3330746475 6547118.72046838 0
378821.3663782809 6542503.454294642 0
377034.2721694308 6546310.225241573 0
388369.8750576081 6528485.957242044 0
378375.7063465242 6543345.837328947 0
379688.8100225914 6540746.652825531 0
377661.4818245599 6544820.407727367 0
380822.5603460243 6540762.73345348 0
387015.6949000747 6539015.694900075 0
379329.1662467321 6543277.690651238 0
384022.8221029654 6536379.932834451 0
378485.978603316 6544753.722183303 0
380233.0293705457 6546080.142515926 0
387068.3287886216 6535184.210503135 0
386535.540927378 6533141.751885453 0
377865.5935543543 6546265.801603538 0
386675.5053004576 6532079.468356475 0
388021.4481291851 6532978.551870815 0
381481.3735809845 6538431.539846556 0
388014.5684901476 6536865.366781199 0
379424.3454937609 6546987.517230926 0
388006.5036185448 6540993.496381455 0
388002.7484815515 6544997.251518449 0
381200.3925590489 6545940.974726681 0
388001.4246811561 6542998.575318844 0
383211.651612182 6547033.08018361 0
385139.4171093057 6547032.274252163 0
382461.4781260191 6537036.611814003 0
384013.6572317984 6535107.187855129 0
386043.0195551349 6546112.630846893 0
387020.4685517276 6546056.182837442 0
385020.5135660737 6533866.909168359 0
380264.1091277362 6541530.47526714 0
379792.6235088466 6542392.416337924 0
378159.2018595949 6545473.694026859 0
378875.6856542098 6544033.412498804 0
387004.9295389887 6542996.495142167 0
381333.782215516 6541540.688639903 0
384180.5116771937 6546066.854220703 0
382488.8851871425 6538341.82507911 0
380297.6157938354 6543215.113077193 0
381394.664592249 6540002.831727531 0
380534.1799104399 6545077.933024682 0
385545.9394093403 6534452.758741551 0
384436.2156970811 6535715.509612656 0
378961.7685356671 6545390.123769972 0
379835.918887419 6544226.901865659 0
387072.3289376063 6537057.876656787 0
387057.319728049 6536064.190060042 0
387034.3650593791 6538050.059959454 0
387019.1343583225 6541003.912985628 0
387026.716093902 6539988.978806173 0
387009.1805600766 6544993.567921475 0
382244.2039582529 6546068.266631786 0
387116.5869897935 6534396.686201148 0
385111.6351664537 6546066.359003093 0
383526.28435674 6537022.339514609 0
380768.7151178386 6542304.960897685 0
386152.404689354 6533920.909566993 0
379418.463910137 6545975.755392939 0
387260.4432261546 6532742.337427264 0
378699.4448227055 6546190.86393768 0
379182.4792125443 6544727.770003852 0
381944.5647119075 6540782.844896386 0
386062.1640391046 6540036.853183458 0
381855.2895261603 6542341.732315513 0
384513.2744357097 6537100.470204609 0
384102.9726188295 6545148.35856569 0
386217.7183303941 6536311.100211151 0
386138.7779861433 6537166.563417398 0
381959.2483625895 6539191.54900969 0
387015.1229001884 6541990.378896228 0
387010.0395084399 6543986.455633726 0
386092.2884772178 6538068.594550963 0
383213.4389398391 6546066.007446256 0
381332.0852514165 6544846.032183418 0
380850.9948847995 6544086.083103867 0
386038.369054339 6545091.797338975 0
383007.1719572161 6537694.134010306 0
385029.7370977438 6535125.185350274 0
386024.9162870053 6535477.307759644 0
381311.4807745379 6543167.388219495 0
387109.1639439543 6533579.759214799 0
379723.0761452128 6545240.683610016 0
386039.0799665868 6542009.426420386 0
383526.325500523 6538371.430819709 0
382449.8118480347 6541568.010960867 0
382428.5085596555 6543220.438827713 0
386047.5370038379 6544062.465468014 0
382489.269601549 6539968.081846999 0
382240.8953420813 6545113.112194453 0
386075.0762411896 6539027.565610599 0
386067.5902725407 6541025.487206963 0
383192.1553891446 6545102.634377601 0
385180.6558298769 6536307.136533801 0
385063.3601105033 6545082.889183328 0
384070.5404720435 6537749.126604285 0
381875.5603296584 6544086.574822268 0
385261.2883153813 6537208.14398625 0
386378.5149884516 6534691.118989507 0
382980.1157672537 6539126.067373022 0
382996.7661237872 6542395.602013895 0
385164.1333126202 6540092.905992217 0
382942.7490949335 6540747.343398684 0
383050.009318635 6544148.972146997 0
385084.4072316175 6544109.977845461 0
384426.3212324928 6538460.425998993 0
384093.8732766713 6539209.418487722 0
386026.5626109215 6542992.915776279 0
385169.7161819758 6541068.95546364 0
383456.254763793 6539969.319447624 0
385098.4268303374 6538093.183801098 0
385027.7111346741 6542239.165321534 0
383467.8911028297 6541504.132612983 0
385187.4106287569 6543232.343032645 0
384089.3692926397 6544192.075539303 0
385141.6306372046 6539114.665615303 0
384396.7147256986 6540284.241189538 0
383466.1587126702 6543279.804258598 0
383720.1143433623 6540764.030155052 0
383955.5040180221 6542309.733508246 0
384330.8007055199 6543186.834834898 0
384289.6085844271 6541361.709708499 0
384722.8668058037 6539643.056629076 0
$EndNodes
$Elements
17 1071 1 1071
1 1 1 18
1 1 15 
2 15 16 
3 16 17 
4 17 18 
5 18 19 
6 19 20 
7 20 21 
8 21 22 
9 22 23 
10 23 24 
11 24 25 
12 25 26 
13 26 27 
14 27 28 
15 28 29 
16 29 30 
17 30 31 
18 31 5 
1 2 1 1
19 5 2 
1 3 1 21
20 2 32 
21 32 33 
22 33 34 
23 34 35 
24 35 36 
25 36 37 
26 37 38 
27 38 39 
28 39 40 
29 40 41 
30 41 42 
31 42 43 
32 43 44 
33 44 45 
34 45 46 
35 46 47 
36 47 48 
37 48 49 
38 49 50 
39 50 51 
40 51 3 
1 4 1 14
41 3 52 
42 52 53 
43 53 54 
44 54 55 
45 55 56 
46 56 57 
47 57 58 
48 58 59 
49 59 60 
50 60 61 
51 61 62 
52 62 63 
53 63 64 
54 64 6 
1 5 1 6
55 6 65 
56 65 66 
57 66 67 
58 67 68 
59 68 69 
60 69 4 
1 6 1 21
61 4 70 
62 70 71 
63 71 72 
64 72 73 
65 73 74 
66 74 75 
67 75 76 
68 76 77 
69 77 78 
70 78 79 
71 79 80 
72 80 81 
73 81 82 
74 82 83 
75 83 84 
76 84 85 
77 85 86 
78 86 87 
79 87 88 
80 88 89 
81 89 1 
1 7 1 4
82 5 90 
83 90 91 
84 91 92 
85 92 7 
1 8 1 3
86 7 93 
87 93 94 
88 94 8 
1 9 1 4
89 8 95 
90 95 96 
91 96 97 
92 97 9 
1 10 1 3
93 9 98 
94 98 99 
95 99 10 
1 11 1 2
96 10 100 
97 100 11 
1 12 1 3
98 11 101 
99 101 102 
100 102 12 
1 13 1 4
101 12 103 
102 103 104 
103 104 105 
104 105 13 
1 14 1 4
105 13 106 
106 106 107 
107 107 108 
108 108 14 
1 15 1 2
109 14 109 
110 109 6 
2 1 2 582
111 350 331 362 
112 207 265 296 
113 349 331 350 
114 322 277 339 
115 317 279 319 
116 328 322 339 
117 345 349 350 
118 254 248 273 
119 317 319 335 
120 248 254 303 
121 128 173 228 
122 344 327 348 
123 313 327 344 
124 276 286 317 
125 279 286 325 
126 206 288 314 
127 276 256 286 
128 246 287 301 
129 361 353 364 
130 359 357 364 
131 353 359 364 
132 287 246 323 
133 342 357 359 
134 193 128 228 
135 251 238 274 
136 359 353 360 
137 356 342 359 
138 314 300 325 
139 267 300 324 
140 288 300 314 
141 230 251 274 
142 216 267 324 
143 310 342 356 
144 90 31 5 
145 228 173 233 
146 171 193 228 
147 251 230 268 
148 321 275 351 
149 326 321 351 
150 296 216 324 
151 328 339 340 
152 265 216 296 
153 243 256 276 
154 219 207 296 
155 268 205 302 
156 339 315 340 
157 171 148 193 
158 174 118 217 
159 361 355 363 
160 331 306 362 
161 243 220 256 
162 355 361 364 
163 128 7 173 
164 283 306 331 
165 207 168 265 
166 176 207 219 
167 284 285 323 
168 346 344 363 
169 208 220 243 
170 311 283 331 
171 284 200 285 
172 190 120 267 
173 304 344 346 
174 90 91 148 
175 255 283 311 
176 310 312 342 
177 279 247 319 
178 247 295 319 
179 276 317 327 
180 310 290 312 
181 208 177 220 
182 147 132 167 
183 332 304 346 
184 254 273 302 
185 319 318 335 
186 7 93 173 
187 172 155 239 
188 130 172 239 
189 217 254 302 
190 313 276 327 
191 291 304 332 
192 178 112 229 
193 246 284 323 
194 294 241 336 
195 173 126 233 
196 318 329 335 
197 93 126 173 
198 216 190 267 
199 255 209 283 
200 289 243 313 
201 341 358 362 
202 358 350 362 
203 179 209 255 
204 70 132 147 
205 309 336 343 
206 102 112 178 
207 290 249 312 
208 30 148 171 
209 329 309 343 
210 327 317 335 
211 158 243 289 
212 94 8 190 
213 175 163 206 
214 123 171 228 
215 165 249 290 
216 309 294 336 
217 176 135 207 
218 354 361 363 
219 256 257 286 
220 280 291 332 
221 347 346 355 
222 13 116 149 
223 221 200 284 
224 177 137 220 
225 337 307 345 
226 211 165 290 
227 98 145 189 
228 11 101 127 
229 30 31 148 
230 280 258 291 
231 180 200 221 
232 334 313 344 
233 332 346 347 
234 210 222 250 
235 213 229 242 
236 189 145 227 
237 343 352 354 
238 4 70 147 
239 72 118 174 
240 134 163 175 
241 243 276 313 
242 118 133 217 
243 315 281 340 
244 168 123 228 
245 354 352 361 
246 134 117 163 
247 210 182 222 
248 223 211 290 
249 123 29 171 
250 357 355 364 
251 285 320 323 
252 200 259 285 
253 137 134 175 
254 333 310 356 
255 8 120 190 
256 183 211 223 
257 258 210 291 
258 135 123 207 
259 27 135 176 
260 11 127 144 
261 347 355 357 
262 261 281 315 
263 140 180 221 
264 307 328 345 
265 182 136 222 
266 256 175 257 
267 138 179 255 
268 133 140 221 
269 29 30 171 
270 152 155 172 
271 69 4 147 
272 259 224 285 
273 91 92 193 
274 132 174 205 
275 157 111 215 
276 133 161 217 
277 161 133 221 
278 123 168 207 
279 132 71 174 
280 292 246 301 
281 23 137 177 
282 130 181 230 
283 136 113 158 
284 172 130 274 
285 215 232 297 
286 111 192 215 
287 179 110 209 
288 124 69 147 
289 246 221 284 
290 192 144 232 
291 240 310 333 
292 161 246 292 
293 163 219 252 
294 126 94 190 
295 117 176 219 
296 180 115 200 
297 206 163 252 
298 185 224 259 
299 118 74 133 
300 119 210 258 
301 261 199 281 
302 110 139 156 
303 214 189 227 
304 257 206 286 
305 293 240 333 
306 25 117 134 
307 66 130 239 
308 206 252 288 
309 113 177 208 
310 117 26 176 
311 163 117 219 
312 241 215 297 
313 220 175 256 
314 130 230 274 
315 24 134 137 
316 217 161 254 
317 67 124 181 
318 275 316 351 
319 175 206 257 
320 286 314 325 
321 82 110 179 
322 286 206 314 
323 158 113 208 
324 133 75 140 
325 214 227 295 
326 130 66 181 
327 183 122 211 
328 137 175 220 
329 76 115 180 
330 184 138 255 
331 28 123 135 
332 113 22 177 
333 158 208 243 
334 70 71 132 
335 129 199 261 
336 229 194 269 
337 139 183 223 
338 71 72 174 
339 304 250 334 
340 344 348 363 
341 289 313 334 
342 226 225 249 
343 21 113 136 
344 222 158 289 
345 72 73 118 
346 73 74 118 
347 20 136 182 
348 224 261 315 
349 297 264 321 
350 254 161 292 
351 185 129 261 
352 250 222 289 
353 140 75 180 
354 161 221 246 
355 304 334 344 
356 85 122 183 
357 119 182 210 
358 115 185 259 
359 355 346 363 
360 110 84 139 
361 136 158 222 
362 316 338 351 
363 25 26 117 
364 199 255 311 
365 126 216 265 
366 187 225 226 
367 186 119 258 
368 156 240 293 
369 121 14 152 
370 74 75 133 
371 24 25 134 
372 212 258 280 
373 281 311 349 
374 199 184 255 
375 224 185 261 
376 26 27 176 
377 6 65 155 
378 124 167 181 
379 23 24 137 
380 138 81 179 
381 80 138 184 
382 291 250 304 
383 252 219 296 
384 110 156 209 
385 341 306 356 
386 27 28 135 
387 254 292 303 
388 341 356 359 
389 306 341 362 
390 22 23 177 
391 144 169 232 
392 249 225 278 
393 129 184 199 
394 260 280 308 
395 139 84 183 
396 209 262 283 
397 21 22 113 
398 260 212 280 
399 278 260 308 
400 28 29 123 
401 65 66 239 
402 225 166 260 
403 295 244 319 
404 308 280 332 
405 188 187 226 
406 131 105 149 
407 156 223 240 
408 166 212 260 
409 306 333 356 
410 225 260 278 
411 306 293 333 
412 340 281 349 
413 249 278 312 
414 122 165 211 
415 212 186 258 
416 278 308 330 
417 230 205 268 
418 250 289 334 
419 82 83 110 
420 83 84 110 
421 262 293 306 
422 336 305 352 
423 156 139 223 
424 200 115 259 
425 240 223 290 
426 285 315 339 
427 119 19 182 
428 209 156 262 
429 20 21 136 
430 10 100 192 
431 112 194 229 
432 78 129 185 
433 181 167 230 
434 187 166 225 
435 269 201 299 
436 165 226 249 
437 240 290 310 
438 281 199 311 
439 330 308 347 
440 81 82 179 
441 330 347 357 
442 141 188 226 
443 262 156 293 
444 31 90 148 
445 125 186 212 
446 166 125 212 
447 122 141 226 
448 75 76 180 
449 129 79 184 
450 18 119 186 
451 165 122 226 
452 66 67 181 
453 80 81 138 
454 19 20 182 
455 285 224 315 
456 169 127 213 
457 169 263 264 
458 283 262 306 
459 115 77 185 
460 312 330 342 
461 84 85 183 
462 143 187 188 
463 210 250 291 
464 142 125 166 
465 79 80 184 
466 142 166 187 
467 122 87 141 
468 93 94 126 
469 194 201 269 
470 88 143 188 
471 125 17 186 
472 18 19 119 
473 299 270 322 
474 76 77 115 
475 77 78 185 
476 78 79 129 
477 143 142 187 
478 85 86 122 
479 86 87 122 
480 141 87 188 
481 17 18 186 
482 311 331 349 
483 16 125 142 
484 16 17 125 
485 233 126 265 
486 15 142 143 
487 87 88 188 
488 270 277 322 
489 15 16 142 
490 89 15 143 
491 88 89 143 
492 89 1 15 
493 264 275 321 
494 345 340 349 
495 191 146 231 
496 232 264 297 
497 98 99 145 
498 213 242 263 
499 241 297 305 
500 111 10 192 
501 308 332 347 
502 102 12 112 
503 342 330 357 
504 201 270 299 
505 227 244 295 
506 145 157 227 
507 9 98 189 
508 305 326 352 
509 264 263 275 
510 312 278 330 
511 124 147 167 
512 157 241 294 
513 99 111 145 
514 169 213 263 
515 275 263 316 
516 68 69 124 
517 67 68 124 
518 232 169 264 
519 99 10 111 
520 352 326 353 
521 152 172 197 
522 300 266 325 
523 144 127 169 
524 146 159 231 
525 318 309 329 
526 266 279 325 
527 338 337 350 
528 244 294 309 
529 167 205 230 
530 277 320 339 
531 126 190 216 
532 95 96 191 
533 97 9 114 
534 352 353 361 
535 320 285 339 
536 145 111 157 
537 316 337 338 
538 112 12 153 
539 146 114 159 
540 282 299 307 
541 202 266 300 
542 267 202 300 
543 96 97 146 
544 244 318 319 
545 263 242 316 
546 231 159 247 
547 157 215 241 
548 329 343 354 
549 127 178 213 
550 213 178 229 
551 316 282 337 
552 241 305 336 
553 8 95 120 
554 353 326 360 
555 351 338 360 
556 348 329 354 
557 120 191 202 
558 337 345 350 
559 168 233 265 
560 159 114 214 
561 148 91 193 
562 97 114 146 
563 277 298 320 
564 114 9 189 
565 105 13 149 
566 231 247 266 
567 101 102 178 
568 247 159 295 
569 153 160 194 
570 338 358 360 
571 242 229 269 
572 96 146 191 
573 120 95 191 
574 282 307 337 
575 227 157 294 
576 164 121 197 
577 202 191 231 
578 112 153 194 
579 326 351 360 
580 242 282 316 
581 159 214 295 
582 305 297 321 
583 348 354 363 
584 244 309 318 
585 203 162 236 
586 244 227 294 
587 266 247 279 
588 109 6 155 
589 202 231 266 
590 152 109 155 
591 104 131 150 
592 100 11 144 
593 292 301 303 
594 120 202 267 
595 236 253 271 
596 195 218 236 
597 12 103 153 
598 114 189 214 
599 167 132 205 
600 162 149 195 
601 271 287 298 
602 104 105 131 
603 245 203 271 
604 338 350 358 
605 103 150 153 
606 131 162 196 
607 196 162 203 
608 103 104 150 
609 197 172 238 
610 245 271 298 
611 235 203 245 
612 121 152 197 
613 92 7 128 
614 242 269 282 
615 194 160 201 
616 150 131 196 
617 203 236 271 
618 14 109 152 
619 277 245 298 
620 235 245 270 
621 270 245 277 
622 196 203 235 
623 100 144 192 
624 204 197 238 
625 298 287 323 
626 282 269 299 
627 343 336 352 
628 162 195 236 
629 160 150 196 
630 160 196 235 
631 131 149 162 
632 13 106 116 
633 106 107 154 
634 107 108 151 
635 153 150 160 
636 320 298 323 
637 108 14 121 
638 201 160 235 
639 305 321 326 
640 204 238 251 
641 164 197 204 
642 127 101 178 
643 215 192 232 
644 201 235 270 
645 116 106 154 
646 151 121 164 
647 107 151 154 
648 204 251 273 
649 287 253 301 
650 108 121 151 
651 271 253 287 
652 92 128 193 
653 164 204 234 
654 154 151 198 
655 218 170 237 
656 149 116 195 
657 116 170 195 
658 335 329 348 
659 170 198 237 
660 198 164 234 
661 198 234 237 
662 273 251 302 
663 195 170 218 
664 234 204 273 
665 155 65 239 
666 253 218 272 
667 151 164 198 
668 327 335 348 
669 116 154 170 
670 237 234 248 
671 236 218 253 
672 248 234 273 
673 237 248 272 
674 218 237 272 
675 168 228 233 
676 328 340 345 
677 252 296 324 
678 272 248 303 
679 170 154 198 
680 301 272 303 
681 253 272 301 
682 307 299 322 
683 288 252 324 
684 307 322 328 
685 238 172 274 
686 251 268 302 
687 300 288 324 
688 205 174 217 
689 205 217 302 
690 286 279 317 
691 358 341 360 
692 341 359 360 
2 2 2 379
693 35 378 383 
694 493 468 497 
695 467 468 493 
696 383 378 396 
697 519 512 521 
698 511 519 521 
699 34 383 397 
700 489 474 496 
701 474 475 496 
702 445 441 482 
703 441 445 475 
704 495 465 510 
705 465 497 510 
706 90 32 402 
707 478 479 493 
708 447 467 479 
709 90 2 32 
710 412 447 479 
711 412 479 498 
712 518 516 521 
713 511 513 520 
714 478 442 479 
715 479 467 493 
716 511 507 513 
717 519 511 520 
718 474 441 475 
719 479 442 498 
720 461 445 482 
721 34 35 383 
722 516 508 521 
723 507 487 513 
724 471 487 507 
725 503 486 517 
726 457 413 481 
727 486 464 500 
728 443 478 493 
729 453 457 481 
730 11 366 417 
731 510 490 515 
732 438 484 499 
733 417 438 469 
734 447 446 467 
735 484 505 506 
736 464 485 500 
737 499 484 506 
738 469 438 499 
739 101 11 417 
740 502 488 509 
741 506 505 515 
742 418 446 447 
743 502 509 518 
744 500 485 512 
745 384 381 440 
746 490 463 515 
747 382 63 399 
748 442 457 498 
749 94 396 415 
750 446 448 468 
751 381 417 469 
752 381 101 417 
753 467 446 468 
754 512 502 518 
755 416 374 481 
756 450 463 490 
757 485 502 512 
758 451 429 476 
759 505 495 510 
760 404 406 431 
761 396 378 415 
762 380 429 451 
763 93 7 383 
764 63 64 399 
765 457 453 498 
766 390 382 414 
767 102 381 384 
768 382 401 414 
769 500 512 519 
770 501 508 516 
771 415 378 459 
772 446 368 448 
773 109 64 6 
774 411 458 482 
775 486 500 517 
776 366 426 477 
777 374 386 453 
778 411 419 458 
779 382 399 401 
780 8 94 415 
781 501 491 508 
782 488 469 499 
783 418 368 446 
784 450 449 463 
785 464 436 485 
786 386 387 412 
787 491 483 508 
788 440 469 488 
789 37 374 416 
790 372 13 403 
791 462 440 488 
792 438 366 477 
793 419 390 460 
794 387 418 447 
795 427 369 478 
796 406 440 462 
797 470 483 491 
798 420 449 450 
799 377 8 415 
800 33 34 398 
801 468 472 497 
802 436 406 462 
803 378 416 459 
804 41 368 418 
805 62 382 390 
806 32 33 402 
807 443 427 478 
808 380 394 429 
809 436 462 485 
810 386 412 453 
811 440 381 469 
812 368 388 448 
813 102 101 381 
814 64 109 399 
815 407 450 490 
816 462 488 502 
817 12 384 404 
818 378 36 416 
819 374 39 386 
820 470 435 483 
821 497 472 510 
822 409 443 493 
823 380 51 394 
824 386 40 387 
825 471 451 487 
826 509 506 516 
827 389 420 450 
828 468 448 472 
829 388 389 450 
830 387 40 418 
831 412 387 447 
832 388 407 448 
833 61 390 419 
834 407 388 450 
835 62 63 382 
836 420 365 449 
837 365 435 470 
838 448 407 472 
839 373 451 471 
840 105 400 403 
841 516 506 522 
842 472 490 510 
843 463 501 515 
844 437 466 494 
845 456 464 480 
846 12 102 384 
847 421 380 451 
848 492 489 503 
849 51 3 394 
850 414 433 460 
851 449 470 491 
852 394 385 429 
853 406 384 440 
854 454 437 494 
855 458 419 460 
856 430 395 457 
857 453 412 498 
858 35 36 378 
859 37 38 374 
860 38 39 374 
861 441 411 482 
862 368 43 388 
863 36 37 416 
864 39 40 386 
865 367 431 432 
866 61 62 390 
867 483 507 511 
868 435 471 507 
869 93 383 396 
870 472 407 490 
871 492 503 514 
872 449 365 470 
873 465 409 493 
874 422 411 441 
875 411 370 419 
876 463 491 501 
877 388 44 389 
878 45 365 420 
879 3 52 394 
880 476 494 504 
881 40 41 418 
882 423 373 471 
883 517 500 519 
884 371 437 454 
885 473 452 492 
886 466 492 514 
887 370 411 422 
888 49 380 421 
889 452 489 492 
890 413 377 415 
891 41 42 368 
892 42 43 368 
893 487 476 504 
894 422 441 474 
895 433 444 460 
896 435 423 471 
897 508 511 521 
898 425 371 454 
899 389 44 420 
900 391 422 452 
901 370 60 419 
902 60 61 419 
903 373 421 451 
904 52 385 394 
905 504 494 514 
906 43 44 388 
907 466 473 492 
908 424 452 473 
909 365 423 435 
910 483 435 507 
911 47 373 423 
912 422 474 489 
913 466 437 473 
914 373 48 421 
915 391 370 422 
916 9 369 427 
917 437 371 473 
918 485 462 502 
919 393 391 452 
920 452 422 489 
921 49 50 380 
922 50 51 380 
923 463 449 491 
924 508 483 511 
925 371 424 473 
926 385 376 429 
927 487 504 513 
928 44 45 420 
929 424 393 452 
930 504 514 520 
931 48 49 421 
932 365 46 423 
933 429 428 476 
934 404 384 406 
935 47 48 373 
936 376 428 429 
937 476 454 494 
938 46 47 423 
939 477 455 495 
940 45 46 365 
941 428 425 454 
942 57 393 424 
943 494 466 514 
944 59 60 370 
945 376 425 428 
946 59 370 391 
947 55 371 425 
948 58 59 391 
949 371 57 424 
950 379 98 427 
951 506 515 522 
952 100 10 426 
953 57 58 393 
954 376 55 425 
955 390 414 460 
956 99 98 379 
957 58 391 393 
958 55 56 371 
959 56 57 371 
960 428 454 476 
961 53 54 376 
962 54 55 376 
963 99 379 392 
964 10 99 392 
965 52 53 385 
966 374 453 481 
967 98 9 427 
968 505 510 515 
969 499 506 509 
970 455 465 495 
971 395 413 457 
972 515 501 522 
973 488 499 509 
974 10 392 426 
975 53 376 385 
976 94 93 396 
977 431 406 436 
978 403 408 434 
979 366 100 426 
980 11 100 366 
981 438 477 484 
982 392 379 409 
983 480 464 486 
984 451 476 487 
985 431 436 456 
986 517 519 520 
987 512 518 521 
988 426 392 455 
989 9 97 369 
990 456 436 464 
991 455 409 465 
992 408 432 439 
993 480 486 496 
994 379 427 443 
995 367 404 431 
996 408 400 432 
997 439 456 480 
998 484 477 495 
999 514 517 520 
1000 413 415 459 
1001 13 105 403 
1002 417 366 438 
1003 408 439 445 
1004 96 95 395 
1005 439 432 456 
1006 426 455 477 
1007 475 439 480 
1008 95 8 377 
1009 409 379 443 
1010 369 430 442 
1011 392 409 455 
1012 395 377 413 
1013 459 416 481 
1014 475 480 496 
1015 105 104 400 
1016 458 444 482 
1017 104 367 400 
1018 445 439 475 
1019 509 516 518 
1020 367 103 404 
1021 403 400 408 
1022 432 431 456 
1023 97 96 430 
1024 399 14 401 
1025 103 12 404 
1026 369 97 430 
1027 501 516 522 
1028 484 495 505 
1029 96 395 430 
1030 434 445 461 
1031 400 367 432 
1032 410 372 434 
1033 369 442 478 
1034 95 377 395 
1035 434 408 445 
1036 514 503 517 
1037 442 430 457 
1038 372 403 434 
1039 104 103 367 
1040 383 7 397 
1041 513 504 520 
1042 465 493 497 
1043 106 13 372 
1044 444 461 482 
1045 107 106 405 
1046 109 14 399 
1047 7 92 397 
1048 108 107 375 
1049 405 372 410 
1050 92 91 398 
1051 375 405 433 
1052 414 375 433 
1053 401 375 414 
1054 410 434 461 
1055 91 90 402 
1056 106 372 405 
1057 444 410 461 
1058 405 410 433 
1059 14 108 401 
1060 375 107 405 
1061 433 410 444 
1062 413 459 481 
1063 34 397 398 
1064 108 375 401 
1065 397 92 398 
1066 398 91 402 
1067 444 458 460 
1068 33 398 402 
1069 2 90 5 
1070 496 486 503 
1071 489 496 503 
$EndElements
